<svg width="18" height="18" viewBox="0 0 18 18" fill="none" xmlns="http://www.w3.org/2000/svg">
<g id="Group">
<path id="Vector (Stroke)" fill-rule="evenodd" clip-rule="evenodd" d="M5.93853 2.60896C6.90914 2.20693 7.94943 2 9 2C10.0506 2 11.0909 2.20693 12.0615 2.60896C13.0321 3.011 13.914 3.60028 14.6569 4.34315C15.3997 5.08601 15.989 5.96793 16.391 6.93853C16.7931 7.90914 17 8.94943 17 10C17 11.0506 16.7931 12.0909 16.391 13.0615C15.989 14.0321 15.3997 14.914 14.6569 15.6569C13.914 16.3997 13.0321 16.989 12.0615 17.391C11.0909 17.7931 10.0506 18 9 18C7.94943 18 6.90914 17.7931 5.93853 17.391C4.96793 16.989 4.08601 16.3997 3.34315 15.6569C2.60028 14.914 2.011 14.0321 1.60896 13.0615C1.20693 12.0909 1 11.0506 1 10C1 8.94943 1.20693 7.90914 1.60896 6.93853C2.011 5.96793 2.60028 5.08601 3.34315 4.34315C4.08601 3.60028 4.96793 3.011 5.93853 2.60896ZM9 4C8.21207 4 7.43185 4.15519 6.7039 4.45672C5.97595 4.75825 5.31451 5.20021 4.75736 5.75736C4.20021 6.31451 3.75825 6.97595 3.45672 7.7039C3.15519 8.43185 3 9.21207 3 10C3 10.7879 3.15519 11.5681 3.45672 12.2961C3.75825 13.0241 4.20021 13.6855 4.75736 14.2426C5.31451 14.7998 5.97595 15.2417 6.7039 15.5433C7.43185 15.8448 8.21207 16 9 16C9.78793 16 10.5681 15.8448 11.2961 15.5433C12.0241 15.2417 12.6855 14.7998 13.2426 14.2426C13.7998 13.6855 14.2417 13.0241 14.5433 12.2961C14.8448 11.5681 15 10.7879 15 10C15 9.21207 14.8448 8.43185 14.5433 7.7039C14.2417 6.97595 13.7998 6.31451 13.2426 5.75736C12.6855 5.20021 12.0241 4.75825 11.2961 4.45672C10.5681 4.15519 9.78793 4 9 4Z" fill="#1E1E1E"/>
<path id="Vector (Stroke)_2" fill-rule="evenodd" clip-rule="evenodd" d="M4.80868 0.411823C5.13352 0.858475 5.03477 1.48389 4.58812 1.80873L1.83812 3.80873C1.39147 4.13357 0.766051 4.03482 0.441212 3.58817C0.116374 3.14151 0.215124 2.5161 0.661777 2.19126L3.41178 0.191258C3.85843 -0.13358 4.48385 -0.03483 4.80868 0.411823ZM13.1912 0.411823C13.5161 -0.03483 14.1415 -0.13358 14.5881 0.191258L17.3381 2.19126C17.7848 2.5161 17.8835 3.14151 17.5587 3.58817C17.2338 4.03482 16.6084 4.13357 16.1618 3.80873L13.4118 1.80873C12.9651 1.48389 12.8664 0.858475 13.1912 0.411823ZM8.99995 5.99999C9.55223 5.99999 9.99995 6.44771 9.99995 6.99999V8.99999H10.9999C11.5522 8.99999 11.9999 9.44771 11.9999 9.99999C11.9999 10.5523 11.5522 11 10.9999 11H8.99995C8.44766 11 7.99995 10.5523 7.99995 9.99999V6.99999C7.99995 6.44771 8.44766 5.99999 8.99995 5.99999Z" fill="#1E1E1E"/>
</g>
</svg>
