<svg width="18" height="20" viewBox="0 0 18 20" fill="none" xmlns="http://www.w3.org/2000/svg">
<g id="Group">
<path id="Vector (Stroke)" fill-rule="evenodd" clip-rule="evenodd" d="M6.87862 0.87868C7.44123 0.316071 8.20429 0 8.99994 0C9.79559 0 10.5587 0.31607 11.1213 0.87868C11.6839 1.44129 11.9999 2.20435 11.9999 3C11.9999 3.79565 11.6839 4.55871 11.1213 5.12132C10.5587 5.68393 9.79559 6 8.99994 6C8.20429 6 7.44123 5.68393 6.87862 5.12132C6.31602 4.55871 5.99994 3.79565 5.99994 3C5.99994 2.20435 6.31602 1.44129 6.87862 0.87868ZM8.99994 2C8.73473 2 8.48038 2.10536 8.29284 2.29289C8.1053 2.48043 7.99994 2.73478 7.99994 3C7.99994 3.26522 8.1053 3.51957 8.29284 3.70711C8.48038 3.89464 8.73473 4 8.99994 4C9.26516 4 9.51952 3.89464 9.70705 3.70711C9.89459 3.51957 9.99994 3.26522 9.99994 3C9.99994 2.73478 9.89459 2.48043 9.70705 2.29289C9.51952 2.10536 9.26516 2 8.99994 2ZM1.00194 9.5C1.55423 9.5 2.00194 9.94771 2.00194 10.5V15.118L7.29194 17.6167C7.29191 17.6167 7.29198 17.6168 7.29194 17.6167C7.82599 17.8689 8.40936 17.9997 8.99994 17.9997C9.59053 17.9997 10.1738 17.869 10.7078 17.6168C10.7078 17.6168 10.7079 17.6168 10.7078 17.6168L15.9999 15.117V10.5C15.9999 9.94771 16.4477 9.5 16.9999 9.5C17.5522 9.5 17.9999 9.94771 17.9999 10.5V15.2226C18.0113 15.476 17.9659 15.7289 17.8667 15.9627C17.7048 16.3509 17.4047 16.6653 17.0243 16.8451L11.562 19.4252C10.7609 19.8035 9.88589 19.9997 8.99994 19.9997C8.114 19.9997 7.23906 19.8035 6.43794 19.4253L0.974669 16.8446C0.66294 16.6969 0.403355 16.4581 0.230205 16.1597C0.064861 15.8748 -0.014237 15.5484 0.00194463 15.22V10.5C0.00194463 9.94771 0.44966 9.5 1.00194 9.5Z" fill="#1E1E1E"/>
<path id="Vector (Stroke)_2" fill-rule="evenodd" clip-rule="evenodd" d="M8.99997 4C9.55226 4 9.99997 4.44772 9.99997 5V6.58314C10.4482 6.65799 10.8899 6.78351 11.3166 6.9597L16.9472 9.2903C16.9481 9.29064 16.9489 9.29097 16.9497 9.29131C17.2538 9.41614 17.515 9.62687 17.7013 9.89776C17.8881 10.1694 17.9915 10.4897 17.9988 10.8193C18.0061 11.1488 17.9169 11.4734 17.7423 11.753C17.568 12.0319 17.3163 12.254 17.0179 12.3921C17.0172 12.3924 17.0164 12.3928 17.0157 12.3931L11.557 14.9346C10.7562 15.3073 9.88334 15.5005 8.99997 15.5005C8.11661 15.5005 7.24392 15.3074 6.44304 14.9346L0.984097 12.393C0.684961 12.2559 0.432318 12.0343 0.257197 11.7556C0.0811262 11.4754 -0.00883727 11.1496 -0.00154214 10.8187C0.00575293 10.4878 0.109986 10.1664 0.298237 9.89416C0.487648 9.62028 0.751091 9.41294 1.05204 9.29057L6.68252 6.96002C7.10923 6.78383 7.55179 6.65799 7.99997 6.58314V5C7.99997 4.44772 8.44769 4 8.99997 4ZM7.99997 8.62497C7.81263 8.67245 7.62786 8.7335 7.44712 8.8081C7.44695 8.80817 7.44728 8.80804 7.44712 8.8081L2.45805 10.8732L7.28691 13.1214C7.28686 13.1214 7.28696 13.1214 7.28691 13.1214C7.82344 13.371 8.4082 13.5005 8.99997 13.5005C9.59175 13.5005 10.1764 13.3711 10.7129 13.1214C10.7129 13.1215 10.7129 13.1214 10.7129 13.1214L15.5419 10.8732L10.5533 8.8083C10.5532 8.80824 10.5535 8.80837 10.5533 8.8083C10.3726 8.7337 10.1873 8.67245 9.99997 8.62497V11C9.99997 11.5523 9.55226 12 8.99997 12C8.44769 12 7.99997 11.5523 7.99997 11V8.62497Z" fill="#1E1E1E"/>
</g>
</svg>
