<svg width="20" height="20" viewBox="0 0 20 20" fill="none" xmlns="http://www.w3.org/2000/svg">
<g id="Group">
<path id="Vector (Stroke)" fill-rule="evenodd" clip-rule="evenodd" d="M2.92889 2.92889C4.80426 1.05351 7.34782 -6.10352e-05 9.99999 -6.10352e-05C12.6522 -6.10352e-05 15.1957 1.05351 17.0711 2.92889C17.9997 3.85748 18.7363 4.95988 19.2388 6.17314C19.7414 7.3864 20 8.68677 20 9.99999C20 11.3132 19.7414 12.6136 19.2388 13.8268C18.7363 15.0401 17.9997 16.1425 17.0711 17.0711C16.1425 17.9997 15.0401 18.7363 13.8268 19.2388C12.6136 19.7414 11.3132 20 9.99999 20C8.68677 20 7.3864 19.7414 6.17314 19.2388C4.95988 18.7363 3.85748 17.9997 2.92889 17.0711C1.05351 15.1957 -6.10352e-05 12.6522 -6.10352e-05 9.99999C-6.10352e-05 7.34782 1.05351 4.80426 2.92889 2.92889ZM9.99999 1.99994C7.87825 1.99994 5.8434 2.8428 4.3431 4.3431C2.8428 5.8434 1.99994 7.87825 1.99994 9.99999C1.99994 12.1217 2.8428 14.1566 4.3431 15.6569C5.08597 16.3998 5.96789 16.989 6.93851 17.3911C7.90912 17.7931 8.94941 18 9.99999 18C11.0506 18 12.0909 17.7931 13.0615 17.3911C14.0321 16.989 14.914 16.3998 15.6569 15.6569C16.3998 14.914 16.989 14.0321 17.3911 13.0615C17.7931 12.0909 18 11.0506 18 9.99999C18 8.94941 17.7931 7.90912 17.3911 6.93851C16.989 5.96789 16.3998 5.08597 15.6569 4.3431C14.1566 2.8428 12.1217 1.99994 9.99999 1.99994Z" fill="#1E1E1E"/>
<path id="Vector (Stroke)_2" fill-rule="evenodd" clip-rule="evenodd" d="M10.4407 0.0214576C10.9922 -0.00850405 11.4636 0.414263 11.4935 0.965735C11.5652 2.28518 11.3746 3.60491 10.9338 4.84884L11.4472 5.10556C11.9412 5.35255 12.1414 5.95322 11.8944 6.4472C11.6474 6.94118 11.0467 7.1414 10.5528 6.89441L10.0802 6.65813C9.83267 7.07016 9.55557 7.46409 9.25097 7.83676L9.70709 8.29288C10.0976 8.6834 10.0976 9.31657 9.70709 9.70709C9.31657 10.0976 8.6834 10.0976 8.29288 9.70709L7.83676 9.25097C7.46409 9.55557 7.07016 9.83267 6.65813 10.0802L6.89441 10.5528C7.1414 11.0467 6.94118 11.6474 6.4472 11.8944C5.95322 12.1414 5.35255 11.9412 5.10556 11.4472L4.84884 10.9338C3.60491 11.3746 2.28518 11.5652 0.965735 11.4935C0.414263 11.4636 -0.00850405 10.9922 0.0214576 10.4407C0.0514192 9.88926 0.522764 9.4665 1.07424 9.49646C2.0681 9.55046 3.06215 9.41846 4.00561 9.10845C3.96161 8.70461 4.16815 8.29787 4.55277 8.10556C4.95471 7.90459 5.42729 7.99971 5.7225 8.30824C5.96104 8.1604 6.19174 8.00005 6.41362 7.82783L6.29288 7.70709C5.90235 7.31657 5.90235 6.6834 6.29288 6.29288C6.6834 5.90235 7.31657 5.90235 7.70709 6.29288L7.82783 6.41362C8.00005 6.19174 8.1604 5.96104 8.30824 5.7225C7.99971 5.42729 7.90459 4.95471 8.10556 4.55277C8.29787 4.16815 8.70461 3.96162 9.10845 4.00562C9.41846 3.06216 9.55046 2.0681 9.49646 1.07424C9.4665 0.522764 9.88926 0.0514192 10.4407 0.0214576ZM13.5528 8.10556C14.0467 7.85857 14.6474 8.05879 14.8944 8.55277L15.1511 9.06621C16.3951 8.62534 17.7148 8.43477 19.0342 8.50646C19.5857 8.53642 20.0085 9.00776 19.9785 9.55924C19.9485 10.1107 19.4772 10.5335 18.9257 10.5035C17.9319 10.4495 16.9378 10.5815 15.9944 10.8915C16.0384 11.2954 15.8318 11.7021 15.4472 11.8944C15.0453 12.0954 14.5727 12.0003 14.2775 11.6917C14.0389 11.8396 13.8082 11.9999 13.5864 12.1721L13.7071 12.2929C14.0976 12.6834 14.0976 13.3166 13.7071 13.7071C13.3166 14.0976 12.6834 14.0976 12.2929 13.7071L12.1721 13.5864C11.9999 13.8082 11.8396 14.0389 11.6917 14.2775C12.0003 14.5727 12.0954 15.0453 11.8944 15.4472C11.7021 15.8318 11.2954 16.0384 10.8915 15.9944C10.5815 16.9378 10.4495 17.9319 10.5035 18.9257C10.5335 19.4772 10.1107 19.9485 9.55924 19.9785C9.00776 20.0085 8.53642 19.5857 8.50646 19.0342C8.43477 17.7148 8.62534 16.3951 9.06621 15.1511L8.55277 14.8944C8.05879 14.6474 7.85857 14.0467 8.10556 13.5528C8.35255 13.0588 8.95322 12.8586 9.4472 13.1056L9.91976 13.3418C10.1673 12.9298 10.4444 12.5359 10.749 12.1632L10.2929 11.7071C9.90235 11.3166 9.90235 10.6834 10.2929 10.2929C10.6834 9.90235 11.3166 9.90235 11.7071 10.2929L12.1632 10.749C12.5359 10.4444 12.9298 10.1673 13.3418 9.91976L13.1056 9.4472C12.8586 8.95322 13.0588 8.35255 13.5528 8.10556Z" fill="#1E1E1E"/>
</g>
</svg>
