<svg width="24" height="24" viewBox="0 0 24 24" fill="none" xmlns="http://www.w3.org/2000/svg">
<g id="Property 1=basketball">
<path id="Vector (Stroke)" fill-rule="evenodd" clip-rule="evenodd" d="M8.17317 2.7612C9.38642 2.25866 10.6868 2 12 2C13.3132 2 14.6136 2.25866 15.8268 2.7612C17.0401 3.26375 18.1425 4.00035 19.0711 4.92893C19.9997 5.85752 20.7362 6.95991 21.2388 8.17317C21.7413 9.38642 22 10.6868 22 12C22 13.3132 21.7413 14.6136 21.2388 15.8268C20.7362 17.0401 19.9997 18.1425 19.0711 19.0711C18.1425 19.9997 17.0401 20.7362 15.8268 21.2388C14.6136 21.7413 13.3132 22 12 22C10.6868 22 9.38642 21.7413 8.17317 21.2388C6.95991 20.7362 5.85752 19.9997 4.92893 19.0711C4.00035 18.1425 3.26375 17.0401 2.7612 15.8268C2.25866 14.6136 2 13.3132 2 12C2 10.6868 2.25866 9.38642 2.7612 8.17317C3.26375 6.95991 4.00035 5.85752 4.92893 4.92893C5.85752 4.00035 6.95991 3.26375 8.17317 2.7612ZM11.0559 4.05591C10.3296 4.14223 9.61702 4.32792 8.93853 4.60896C8.27745 4.88279 7.65751 5.24349 7.09462 5.68041L12 10.5858L13.2572 9.32854C12.0262 7.8225 11.2611 5.9894 11.0559 4.05591ZM13.0721 4.07217C13.261 5.46863 13.8158 6.79158 14.6804 7.9054L16.9054 5.68041C16.3425 5.24349 15.7226 4.88279 15.0615 4.60896C14.4229 4.34445 13.7541 4.1644 13.0721 4.07217ZM18.3196 7.09462L16.0946 9.31962C17.2084 10.1842 18.5314 10.739 19.9278 10.9279C19.8356 10.2459 19.6555 9.57712 19.391 8.93853C19.1172 8.27745 18.7565 7.65751 18.3196 7.09462ZM19.9441 12.9441C18.0106 12.7389 16.1775 11.9738 14.6715 10.7428L13.4142 12L18.3196 16.9054C18.7565 16.3425 19.1172 15.7226 19.391 15.0615C19.6721 14.383 19.8578 13.6704 19.9441 12.9441ZM16.9054 18.3196L12 13.4142L10.7428 14.6715C11.9738 16.1775 12.7389 18.0106 12.9441 19.9441C13.6704 19.8578 14.383 19.6721 15.0615 19.391C15.7226 19.1172 16.3425 18.7565 16.9054 18.3196ZM10.9279 19.9278C10.739 18.5314 10.1842 17.2084 9.31962 16.0946L7.09462 18.3196C7.65751 18.7565 8.27745 19.1172 8.93853 19.391C9.57712 19.6555 10.2459 19.8356 10.9279 19.9278ZM5.68041 16.9054L7.9054 14.6804C6.79158 13.8158 5.46864 13.261 4.07217 13.0721C4.1644 13.7541 4.34445 14.4229 4.60896 15.0615C4.88279 15.7226 5.24349 16.3425 5.68041 16.9054ZM4.05591 11.0559C5.9894 11.2611 7.8225 12.0262 9.32854 13.2572L10.5858 12L5.68041 7.09462C5.24349 7.65751 4.88279 8.27745 4.60896 8.93853C4.32792 9.61702 4.14223 10.3296 4.05591 11.0559Z" fill="#1E1E1E"/>
</g>
</svg>
