<svg width="24" height="24" viewBox="0 0 24 24" fill="none" xmlns="http://www.w3.org/2000/svg">
<g id="Property 1=bulb">
<path id="Vector (Stroke)" fill-rule="evenodd" clip-rule="evenodd" d="M12 2C12.5523 2 13 2.44772 13 3V4C13 4.55228 12.5523 5 12 5C11.4477 5 11 4.55228 11 4V3C11 2.44772 11.4477 2 12 2ZM4.89289 4.89289C5.28342 4.50237 5.91658 4.50237 6.30711 4.89289L7.00711 5.59289C7.39763 5.98342 7.39763 6.61658 7.00711 7.00711C6.61658 7.39763 5.98342 7.39763 5.59289 7.00711L4.89289 6.30711C4.50237 5.91658 4.50237 5.28342 4.89289 4.89289ZM19.1071 4.89289C19.4976 5.28342 19.4976 5.91658 19.1071 6.30711L18.4071 7.00711C18.0166 7.39763 17.3834 7.39763 16.9929 7.00711C16.6024 6.61658 16.6024 5.98342 16.9929 5.59289L17.6929 4.89289C18.0834 4.50237 18.7166 4.50237 19.1071 4.89289ZM12 8C11.1605 8 10.3422 8.26415 9.66116 8.75503C8.9801 9.24591 8.47075 9.93864 8.20527 10.7351C7.93978 11.5315 7.93163 12.3913 8.18195 13.1927C8.43227 13.994 8.92838 14.6963 9.6 15.2C9.6365 15.2274 9.67108 15.2572 9.7035 15.2893C9.92277 15.5064 10.1184 15.7446 10.2878 16H13.7122C13.8816 15.7446 14.0772 15.5064 14.2965 15.2893C14.3289 15.2572 14.3635 15.2274 14.4 15.2C15.0716 14.6963 15.5677 13.994 15.8181 13.1927C16.0684 12.3913 16.0602 11.5315 15.7947 10.7351C15.5293 9.93864 15.0199 9.24591 14.3388 8.75503C13.6578 8.26415 12.8395 8 12 8ZM15.1636 17.5045C15.1936 17.4533 15.2191 17.3992 15.2397 17.3427C15.3507 17.1273 15.4927 16.9286 15.6616 16.7532C16.6378 16.0012 17.3593 14.9664 17.7271 13.789C18.1026 12.587 18.0903 11.2973 17.6921 10.1026C17.2939 8.90796 16.5299 7.86887 15.5083 7.13255C14.4867 6.39622 13.2593 6 12 6C10.7407 6 9.51333 6.39622 8.49174 7.13255C7.47014 7.86887 6.70612 8.90796 6.3079 10.1026C5.90968 11.2973 5.89744 12.587 6.27292 13.789C6.6407 14.9664 7.36222 16.0012 8.33839 16.7532C8.50731 16.9286 8.6493 17.1273 8.76027 17.3427C8.78088 17.3992 8.80643 17.4533 8.8364 17.5045C8.86333 17.5675 8.8877 17.6316 8.90945 17.6969C9.03354 18.0691 9.06825 18.4654 9.01078 18.8535C9.0036 18.902 9 18.951 9 19C9 19.7957 9.31607 20.5587 9.87868 21.1213C10.4413 21.6839 11.2043 22 12 22C12.7957 22 13.5587 21.6839 14.1213 21.1213C14.6839 20.5587 15 19.7957 15 19C15 18.951 14.9964 18.902 14.9892 18.8535C14.9317 18.4654 14.9665 18.0691 15.0906 17.6969C15.1123 17.6316 15.1367 17.5675 15.1636 17.5045ZM12.9887 18H11.0113C11.0494 18.3504 11.0464 18.705 11.0016 19.0566C11.0155 19.3012 11.1187 19.5329 11.2929 19.7071C11.4804 19.8946 11.7348 20 12 20C12.2652 20 12.5196 19.8946 12.7071 19.7071C12.8813 19.5329 12.9845 19.3012 12.9984 19.0566C12.9536 18.705 12.9506 18.3504 12.9887 18ZM2 12C2 11.4477 2.44772 11 3 11H4C4.55228 11 5 11.4477 5 12C5 12.5523 4.55228 13 4 13H3C2.44772 13 2 12.5523 2 12ZM19 12C19 11.4477 19.4477 11 20 11H21C21.5523 11 22 11.4477 22 12C22 12.5523 21.5523 13 21 13H20C19.4477 13 19 12.5523 19 12Z" fill="#1E1E1E"/>
</g>
</svg>
