<svg width="24" height="24" viewBox="0 0 24 24" fill="none" xmlns="http://www.w3.org/2000/svg">
<g id="Group">
<path id="Subtract" fill-rule="evenodd" clip-rule="evenodd" d="M4.89386 18.2442C5.04443 18.6321 5.23053 19.0043 5.45092 19.357C5.99534 20.2283 6.73827 20.9637 7.63729 21.5212C8.5363 22.0787 9.57379 22.4474 10.6905 22.6063C11.8072 22.7652 12.9813 22.7111 14.1458 22.4471C15.3102 22.1831 16.4422 21.7144 17.4771 21.0678C18.5119 20.4211 19.4294 19.6092 20.1772 18.6784C20.9249 17.7475 21.4883 16.716 21.8351 15.6426C22.1818 14.5693 22.3053 13.4752 22.1983 12.4228C22.0914 11.3703 21.7561 10.3802 21.2117 9.50891C20.9621 9.10951 20.6708 8.73867 20.3419 8.40043C20.5476 9.03786 20.6875 9.69969 20.7584 10.375C20.8888 11.6172 20.783 12.8806 20.447 14.0931C20.1111 15.3055 19.5515 16.4432 18.8004 17.4412C18.0492 18.4392 17.1212 19.2779 16.0692 19.9096C15.0172 20.5412 13.8618 20.9534 12.6691 21.1225C11.4765 21.2916 10.2698 21.2144 9.11796 20.8952C7.96616 20.5761 6.89181 20.0212 5.95624 19.2624C5.57503 18.9532 5.2199 18.6126 4.89386 18.2442Z" fill="#1E1E1E"/>
<g id="Vector (Stroke)">
<path fill-rule="evenodd" clip-rule="evenodd" d="M10.6832 2.20305C11.8759 2.03393 13.0826 2.11116 14.2344 2.43031C15.3862 2.74946 16.4606 3.30429 17.3961 4.06313C18.3317 4.82196 19.1101 5.76993 19.687 6.85292C20.2639 7.93591 20.628 9.1327 20.7584 10.375C20.8888 11.6172 20.783 12.8807 20.447 14.0931C20.1111 15.3055 19.5515 16.4432 18.8004 17.4412C18.0492 18.4392 17.1212 19.2779 16.0692 19.9096C15.0172 20.5412 13.8618 20.9534 12.6691 21.1225C11.4764 21.2916 10.2698 21.2144 9.11795 20.8952C7.96615 20.5761 6.8918 20.0212 5.95623 19.2624C5.02067 18.5036 4.24222 17.5556 3.66532 16.4726C3.08843 15.3896 2.72439 14.1928 2.59399 12.9506C2.46359 11.7083 2.56939 10.4449 2.90534 9.23246C3.24129 8.02003 3.80082 6.88234 4.55197 5.88434C5.30312 4.88635 6.23119 4.04758 7.28319 3.41594C8.33519 2.78431 9.49052 2.37216 10.6832 2.20305ZM13.7228 4.2768C12.8013 4.02148 11.836 3.9597 10.8818 4.09499C9.92765 4.23028 9.00339 4.56 8.16179 5.06531C7.32019 5.57062 6.57773 6.24163 5.97681 7.04003C5.37589 7.83843 4.92827 8.74858 4.65951 9.71852C4.39075 10.6885 4.30611 11.6992 4.41043 12.693C4.51475 13.6868 4.80598 14.6442 5.26749 15.5106C5.72901 16.377 6.35177 17.1354 7.10022 17.7425C7.84867 18.3495 8.70816 18.7934 9.6296 19.0487C10.551 19.3041 11.5164 19.3658 12.4705 19.2305C13.4247 19.0952 14.349 18.7655 15.1906 18.2602C16.0322 17.7549 16.7746 17.0839 17.3755 16.2855C17.9765 15.4871 18.4241 14.577 18.6928 13.607C18.9616 12.6371 19.0462 11.6263 18.9419 10.6325C18.8376 9.63872 18.5464 8.68128 18.0849 7.81489C17.6233 6.9485 17.0006 6.19012 16.2521 5.58306C15.5037 4.97599 14.6442 4.53212 13.7228 4.2768Z" fill="#1E1E1E"/>
</g>
<path id="Vector (Stroke)_2" fill-rule="evenodd" clip-rule="evenodd" d="M13.8325 7.28924C13.9736 6.77945 13.6954 6.2575 13.2112 6.12331C12.7268 5.98909 12.2195 6.29363 12.0782 6.80352C11.3804 6.61015 10.6303 6.71652 9.99289 7.09921C9.35551 7.48191 8.88308 8.10959 8.67953 8.84417C8.47599 9.57875 8.558 10.3601 8.90753 11.0162C9.25705 11.6724 9.84546 12.1496 10.5433 12.343L10.0317 14.1895C10.0218 14.1868 10.0119 14.1842 10.002 14.1818C9.84148 14.1434 9.69512 14.0598 9.5786 13.94C9.46208 13.8201 9.3798 13.6686 9.34055 13.5015C9.22103 12.9927 8.72673 12.6924 8.23651 12.8308C7.74628 12.9692 7.44577 13.4938 7.56529 14.0026C7.68304 14.5038 7.9299 14.9585 8.27945 15.318C8.62178 15.6702 9.05 15.918 9.51993 16.0363C9.37886 16.5461 9.657 17.0681 10.1413 17.2023C10.6257 17.3365 11.1329 17.0319 11.2742 16.522C11.972 16.7154 12.7222 16.609 13.3596 16.2263C13.9969 15.8437 14.4694 15.216 14.6729 14.4814C14.8765 13.7468 14.7944 12.9655 14.4449 12.3094C14.0954 11.6532 13.507 11.1759 12.8091 10.9826L13.3208 9.13608C13.3306 9.1388 13.3405 9.14135 13.3504 9.14373C13.511 9.18215 13.6573 9.26575 13.7738 9.3856C13.8904 9.50544 13.9726 9.65701 14.0119 9.82408C14.1314 10.3329 14.6257 10.6331 15.1159 10.4948C15.6062 10.3564 15.9067 9.83177 15.7871 9.32298C15.6694 8.82176 15.4225 8.36705 15.073 8.00752C14.7307 7.65541 14.3024 7.40757 13.8325 7.28924ZM12.2975 12.8291L11.7858 14.6755C12.0185 14.74 12.2685 14.7046 12.481 14.577C12.6934 14.4494 12.8509 14.2402 12.9187 13.9953C12.9866 13.7505 12.9593 13.49 12.8427 13.2713C12.7262 13.0526 12.5301 12.8935 12.2975 12.8291ZM11.055 10.4965L11.5666 8.65001C11.334 8.58556 11.0839 8.62101 10.8715 8.74858C10.659 8.87614 10.5015 9.08537 10.4337 9.33023C10.3659 9.57509 10.3932 9.83552 10.5097 10.0542C10.6262 10.273 10.8223 10.432 11.055 10.4965Z" fill="#1E1E1E"/>
</g>
</svg>
