<svg width="20" height="20" viewBox="0 0 20 20" fill="none" xmlns="http://www.w3.org/2000/svg">
<g id="Group">
<path id="Vector (Stroke)" fill-rule="evenodd" clip-rule="evenodd" d="M6.17317 0.761205C7.38642 0.258658 8.68678 0 10 0C11.3132 0 12.6136 0.258658 13.8268 0.761205C15.0401 1.26375 16.1425 2.00035 17.0711 2.92893C17.9997 3.85752 18.7362 4.95991 19.2388 6.17317C19.7413 7.38642 20 8.68678 20 10C20 11.3132 19.7413 12.6136 19.2388 13.8268C18.7362 15.0401 17.9997 16.1425 17.0711 17.0711C16.1425 17.9997 15.0401 18.7362 13.8268 19.2388C12.6136 19.7413 11.3132 20 10 20C8.68678 20 7.38642 19.7413 6.17317 19.2388C4.95991 18.7362 3.85752 17.9997 2.92893 17.0711C2.00035 16.1425 1.26375 15.0401 0.761205 13.8268C0.258658 12.6136 0 11.3132 0 10C0 8.68678 0.258658 7.38642 0.761205 6.17317C1.26375 4.95991 2.00035 3.85752 2.92893 2.92893C3.85752 2.00035 4.95991 1.26375 6.17317 0.761205ZM10 2C8.94942 2 7.90914 2.20693 6.93853 2.60896C5.96793 3.011 5.08601 3.60028 4.34315 4.34315C3.60028 5.08601 3.011 5.96793 2.60896 6.93853C2.20693 7.90914 2 8.94942 2 10C2 11.0506 2.20693 12.0909 2.60896 13.0615C3.011 14.0321 3.60028 14.914 4.34315 15.6569C5.08601 16.3997 5.96793 16.989 6.93853 17.391C7.90914 17.7931 8.94942 18 10 18C11.0506 18 12.0909 17.7931 13.0615 17.391C14.0321 16.989 14.914 16.3997 15.6569 15.6569C16.3997 14.914 16.989 14.0321 17.391 13.0615C17.7931 12.0909 18 11.0506 18 10C18 8.94942 17.7931 7.90914 17.391 6.93853C16.989 5.96793 16.3997 5.08602 15.6569 4.34315C14.914 3.60028 14.0321 3.011 13.0615 2.60896C12.0909 2.20693 11.0506 2 10 2Z" fill="#1E1E1E"/>
<path id="Vector (Stroke)_2" fill-rule="evenodd" clip-rule="evenodd" d="M11 4.99962C10.9998 4.44751 10.5522 4 10 4C9.44772 4 9 4.44772 9 5C8.20435 5 7.44129 5.31607 6.87868 5.87868C6.31607 6.44129 6 7.20435 6 8C6 8.79565 6.31607 9.55871 6.87868 10.1213C7.44129 10.6839 8.20435 11 9 11V13C8.98878 13 8.97756 13.0002 8.96635 13.0006C8.7851 13.0067 8.6056 12.9634 8.44706 12.8753C8.28853 12.7872 8.15693 12.6577 8.06635 12.5006C7.79052 12.0221 7.17904 11.8578 6.70057 12.1336C6.22209 12.4095 6.05782 13.021 6.33365 13.4994C6.60538 13.9708 7.00017 14.3594 7.47578 14.6236C7.94157 14.8824 8.46769 15.0123 9 15.0004C9.0002 15.5525 9.44784 16 10 16C10.5523 16 11 15.5523 11 15C11.7957 15 12.5587 14.6839 13.1213 14.1213C13.6839 13.5587 14 12.7957 14 12C14 11.2043 13.6839 10.4413 13.1213 9.87868C12.5587 9.31607 11.7957 9 11 9V7C11.0112 7 11.0224 6.99981 11.0336 6.99943C11.2149 6.99333 11.3944 7.03664 11.5529 7.12471C11.7115 7.21279 11.8431 7.34231 11.9336 7.49943C12.2095 7.97791 12.821 8.14218 13.2994 7.86635C13.7779 7.59052 13.9422 6.97904 13.6664 6.50057C13.3946 6.02921 12.9998 5.64062 12.5242 5.3764C12.0584 5.11762 11.5323 4.98768 11 4.99962ZM11 11V13C11.2652 13 11.5196 12.8946 11.7071 12.7071C11.8946 12.5196 12 12.2652 12 12C12 11.7348 11.8946 11.4804 11.7071 11.2929C11.5196 11.1054 11.2652 11 11 11ZM9 9V7C8.73478 7 8.48043 7.10536 8.29289 7.29289C8.10536 7.48043 8 7.73478 8 8C8 8.26522 8.10536 8.51957 8.29289 8.70711C8.48043 8.89464 8.73478 9 9 9Z" fill="#1E1E1E"/>
</g>
</svg>
