<svg width="20" height="20" viewBox="0 0 20 20" fill="none" xmlns="http://www.w3.org/2000/svg">
<g id="Group">
<path id="Vector (Stroke)" fill-rule="evenodd" clip-rule="evenodd" d="M9.29198 7.87977C9.68258 8.27023 9.68269 8.90339 9.29223 9.29399C9.10472 9.48157 8.9994 9.73595 8.99945 10.0012C8.9995 10.2664 9.1049 10.5208 9.29248 10.7083C9.48006 10.8958 9.73445 11.0011 9.99968 11.0011C10.2649 11.001 10.5193 10.8956 10.7068 10.708C11.0972 10.3174 11.7304 10.3173 12.121 10.7078C12.5116 11.0982 12.5117 11.7314 12.1212 12.122C11.5587 12.6847 10.7957 13.0009 10 13.0011C9.20437 13.0012 8.44124 12.6853 7.87852 12.1227C7.3158 11.5602 6.99959 10.7972 6.99945 10.0015C6.99931 9.20587 7.31525 8.44274 7.87777 7.88002C8.26823 7.48943 8.90139 7.48932 9.29198 7.87977Z" fill="#1E1E1E"/>
<path id="Vector (Stroke)_2" fill-rule="evenodd" clip-rule="evenodd" d="M0.292893 0.292893C0.683418 -0.0976311 1.31658 -0.0976311 1.70711 0.292893L15.3072 13.893C15.3627 13.9375 15.4139 13.9885 15.4598 14.0456L19.7071 18.2929C20.0976 18.6834 20.0976 19.3166 19.7071 19.7071C19.3166 20.0976 18.6834 20.0976 18.2929 19.7071L14.5075 15.9217C13.1167 16.6388 11.5692 17.0107 9.99644 17C5.94252 16.9987 2.66145 14.7127 0.142507 10.5145C-0.0475024 10.1978 -0.0475024 9.80219 0.142507 9.4855C1.21193 7.70314 2.41907 6.25995 3.77593 5.19015L0.292893 1.70711C-0.0976311 1.31658 -0.0976311 0.683417 0.292893 0.292893ZM5.20214 6.61635C4.13029 7.41881 3.11853 8.53702 2.17707 10.0001C4.39041 13.4411 7.00116 15 10 15H10.0072V15C11.0389 15.0074 12.057 14.8074 13.0025 14.4168L5.20214 6.61635ZM9.9968 5C9.45351 4.99826 8.91145 5.05187 8.37902 5.15999C7.83779 5.26991 7.30992 4.92026 7.20001 4.37902C7.09009 3.83779 7.43974 3.30992 7.98098 3.20001C8.646 3.06495 9.32304 2.99794 10.0016 3C14.0564 3.00061 17.3381 5.2866 19.8575 9.4855C20.0476 9.80232 20.0475 10.1981 19.8573 10.5149C19.1597 11.6764 18.4048 12.6929 17.589 13.5566C17.2098 13.9581 16.5769 13.9762 16.1754 13.597C15.7739 13.2178 15.7558 12.5849 16.135 12.1834C16.7199 11.564 17.2832 10.8376 17.8228 9.99971C15.6095 6.55885 12.9988 5 10 5L9.9968 5Z" fill="#1E1E1E"/>
</g>
</svg>
