<svg width="20" height="14" viewBox="0 0 20 14" fill="none" xmlns="http://www.w3.org/2000/svg">
<g id="Group">
<path id="Vector (Stroke)" fill-rule="evenodd" clip-rule="evenodd" d="M7.87868 4.87868C8.44129 4.31607 9.20435 4 10 4C10.7957 4 11.5587 4.31607 12.1213 4.87868C12.6839 5.44129 13 6.20435 13 7C13 7.79565 12.6839 8.55871 12.1213 9.12132C11.5587 9.68393 10.7957 10 10 10C9.20435 10 8.44129 9.68393 7.87868 9.12132C7.31607 8.55871 7 7.79565 7 7C7 6.20435 7.31607 5.44129 7.87868 4.87868ZM10 6C9.73478 6 9.48043 6.10536 9.29289 6.29289C9.10536 6.48043 9 6.73478 9 7C9 7.26522 9.10536 7.51957 9.29289 7.70711C9.48043 7.89464 9.73478 8 10 8C10.2652 8 10.5196 7.89464 10.7071 7.70711C10.8946 7.51957 11 7.26522 11 7C11 6.73478 10.8946 6.48043 10.7071 6.29289C10.5196 6.10536 10.2652 6 10 6Z" fill="#1E1E1E"/>
<path id="Vector (Stroke)_2" fill-rule="evenodd" clip-rule="evenodd" d="M2.17703 7C4.39038 10.4411 7.00114 12 10 12C12.9989 12 15.6096 10.4411 17.823 7C15.6096 3.55893 12.9989 2 10 2C7.00114 2 4.39038 3.55893 2.17703 7ZM0.142507 6.4855C2.66219 2.28603 5.94444 0 10 0C14.0556 0 17.3378 2.28603 19.8575 6.4855C20.0475 6.80219 20.0475 7.19781 19.8575 7.5145C17.3378 11.714 14.0556 14 10 14C5.94444 14 2.66219 11.714 0.142507 7.5145C-0.0475024 7.19781 -0.0475024 6.80219 0.142507 6.4855Z" fill="#1E1E1E"/>
</g>
</svg>
