<svg width="24" height="24" viewBox="0 0 24 24" fill="none" xmlns="http://www.w3.org/2000/svg">
<g id="Property 1=flame">
<path id="Vector (Stroke)" fill-rule="evenodd" clip-rule="evenodd" d="M10.6074 1.08027C10.9758 0.923023 11.4025 1.00079 11.6918 1.27789C12.4496 2.00392 13.3584 3.60326 13.7859 5.42021C14.1535 6.98251 14.1997 8.85688 13.3637 10.5896C13.5134 10.6263 13.6226 10.6047 13.7233 10.5662C14.1135 10.4169 14.7778 9.85118 15.8177 8.17811C15.9822 7.91344 16.2607 7.74058 16.5709 7.71063C16.8811 7.68067 17.1875 7.79703 17.3996 8.02533C18.0549 8.73067 18.693 9.81106 19.1648 10.9069C19.6337 11.9958 20 13.2417 20 14.294C20 18.5903 16.3774 22 12 22C7.62262 22 4 18.5903 4 14.294C4 12.064 5.00705 9.59278 6.6314 7.99343L6.63215 7.99269C6.73057 7.89599 6.83057 7.79869 6.93152 7.70046C8.36942 6.30138 10 4.71484 10 1.99999C10 1.59943 10.239 1.23752 10.6074 1.08027ZM11.5063 4.7939C10.7688 6.78099 9.35955 8.13949 8.35878 9.10419C8.24478 9.21409 8.13607 9.31887 8.03426 9.4189C6.7988 10.6356 6 12.5902 6 14.294C6 17.4057 8.64538 20 12 20C15.3546 20 18 17.4057 18 14.294C18 13.6343 17.7503 12.6787 17.3279 11.6979C17.1345 11.2488 16.918 10.8245 16.6971 10.4505C15.9521 11.4548 15.2236 12.1335 14.4382 12.4341C13.1966 12.9092 12.1632 12.3466 11.3787 11.7246C10.963 11.395 10.8771 10.7982 11.1828 10.3647C12.1271 9.02573 12.1962 7.39613 11.8391 5.87828C11.7486 5.49392 11.6339 5.12993 11.5063 4.7939Z" fill="#1E1E1E"/>
</g>
</svg>
