<svg width="20" height="20" viewBox="0 0 20 20" fill="none" xmlns="http://www.w3.org/2000/svg">
<g id="Group">
<path id="Vector (Stroke)" fill-rule="evenodd" clip-rule="evenodd" d="M6.17317 0.761205C7.38642 0.258658 8.68678 0 10 0C11.3132 0 12.6136 0.258658 13.8268 0.761205C15.0401 1.26375 16.1425 2.00035 17.0711 2.92893C17.9997 3.85752 18.7362 4.95991 19.2388 6.17317C19.7413 7.38642 20 8.68678 20 10C20 11.3132 19.7413 12.6136 19.2388 13.8268C18.7362 15.0401 17.9997 16.1425 17.0711 17.0711C16.1425 17.9997 15.0401 18.7362 13.8268 19.2388C12.6136 19.7413 11.3132 20 10 20C8.68678 20 7.38642 19.7413 6.17317 19.2388C4.95991 18.7362 3.85752 17.9997 2.92893 17.0711C2.00035 16.1425 1.26375 15.0401 0.761205 13.8268C0.258658 12.6136 0 11.3132 0 10C0 8.68678 0.258658 7.38642 0.761205 6.17317C1.26375 4.95991 2.00035 3.85752 2.92893 2.92893C3.85752 2.00035 4.95991 1.26375 6.17317 0.761205ZM10 2C8.94942 2 7.90914 2.20693 6.93853 2.60896C5.96793 3.011 5.08601 3.60028 4.34315 4.34315C3.60028 5.08601 3.011 5.96793 2.60896 6.93853C2.20693 7.90914 2 8.94942 2 10C2 11.0506 2.20693 12.0909 2.60896 13.0615C3.011 14.0321 3.60028 14.914 4.34315 15.6569C5.08601 16.3997 5.96793 16.989 6.93853 17.391C7.90914 17.7931 8.94942 18 10 18C11.0506 18 12.0909 17.7931 13.0615 17.391C14.0321 16.989 14.914 16.3997 15.6569 15.6569C16.3997 14.914 16.989 14.0321 17.391 13.0615C17.7931 12.0909 18 11.0506 18 10C18 8.94942 17.7931 7.90914 17.391 6.93853C16.989 5.96793 16.3997 5.08602 15.6569 4.34315C14.914 3.60028 14.0321 3.011 13.0615 2.60896C12.0909 2.20693 11.0506 2 10 2Z" fill="#1E1E1E"/>
<path id="Vector (Stroke)_2" fill-rule="evenodd" clip-rule="evenodd" d="M10 0C10.5523 0 11 0.447715 11 1V4.48975L14.9061 7.32084L18.1385 6.06762C18.6535 5.86798 19.2328 6.12358 19.4324 6.63852C19.632 7.15345 19.3764 7.73274 18.8615 7.93238L15.5684 9.20913L14.1187 13.7804L16.2682 16.3598C16.6218 16.7841 16.5645 17.4147 16.1402 17.7682C15.7159 18.1218 15.0854 18.0645 14.7318 17.6402L12.5317 15H7.55965L5.25529 17.6554C4.89331 18.0725 4.26173 18.1172 3.84461 17.7553C3.42748 17.3933 3.38278 16.7617 3.74476 16.3446L5.90503 13.8552L4.43168 9.20913L1.13854 7.93238C0.623603 7.73274 0.368004 7.15345 0.567646 6.63852C0.767288 6.12358 1.34657 5.86798 1.86151 6.06762L5.09394 7.32084L9.00002 4.48975V1C9.00002 0.447715 9.44774 0 10 0ZM10 6.23504L6.4115 8.83597L7.73199 13H12.2681L13.5886 8.83597L10 6.23504Z" fill="#1E1E1E"/>
</g>
</svg>
