<svg width="20" height="21" viewBox="0 0 20 21" fill="none" xmlns="http://www.w3.org/2000/svg">
<g id="Group">
<path id="Vector (Stroke)" fill-rule="evenodd" clip-rule="evenodd" d="M8.5 2C8.36739 2 8.24021 2.05268 8.14645 2.14645C8.05268 2.24021 8 2.36739 8 2.5V11C8 11.5523 7.55228 12 7 12C6.44772 12 6 11.5523 6 11V2.5C6 1.83696 6.26339 1.20107 6.73223 0.732233C7.20107 0.263392 7.83696 0 8.5 0C9.16304 0 9.79893 0.263392 10.2678 0.732233C10.7366 1.20107 11 1.83696 11 2.5V5.0505C11.1633 5.01715 11.3308 5 11.5 5C12.163 5 12.7989 5.26339 13.2678 5.73223C13.3992 5.86368 13.5145 6.00826 13.6124 6.16288C13.8933 6.0562 14.1937 6 14.5 6C15.163 6 15.7989 6.26339 16.2678 6.73223C16.7366 7.20107 17 7.83696 17 8.5V10C17 10.5523 16.5523 11 16 11C15.4477 11 15 10.5523 15 10V8.5C15 8.36739 14.9473 8.24022 14.8536 8.14645C14.7598 8.05268 14.6326 8 14.5 8C14.3674 8 14.2402 8.05268 14.1464 8.14645C14.0527 8.24021 14 8.36739 14 8.5V10C14 10.5523 13.5523 11 13 11C12.4477 11 12 10.5523 12 10V7.5C12 7.36739 11.9473 7.24021 11.8536 7.14645C11.7598 7.05268 11.6326 7 11.5 7C11.3674 7 11.2402 7.05268 11.1464 7.14645C11.0527 7.24021 11 7.36739 11 7.5V10C11 10.5523 10.5523 11 10 11C9.44772 11 9 10.5523 9 10V2.5C9 2.36739 8.94732 2.24021 8.85355 2.14645C8.75979 2.05268 8.63261 2 8.5 2Z" fill="#1E1E1E"/>
<g id="Vector (Stroke)_2">
<path fill-rule="evenodd" clip-rule="evenodd" d="M13.2587 0.492065C12.7252 0.349167 12.1769 0.665794 12.034 1.19927C11.8911 1.73275 12.2077 2.28106 12.7412 2.42396C13.9465 2.7468 15.0961 3.2497 16.1512 3.91566C16.6183 4.21044 17.2358 4.07079 17.5306 3.60375C17.8254 3.13671 17.6857 2.51914 17.2187 2.22436C15.9934 1.45099 14.6583 0.866974 13.2587 0.492065ZM4.40883 3.08005C4.91309 2.85479 5.13926 2.2634 4.914 1.75914C4.68874 1.25488 4.09735 1.02871 3.59309 1.25397C2.66085 1.67042 1.77519 2.18417 0.950872 2.78667C0.504992 3.11257 0.407727 3.73822 0.733625 4.1841C1.05952 4.62998 1.68517 4.72725 2.13105 4.40135C2.84167 3.88195 3.60517 3.43906 4.40883 3.08005ZM17.3289 9.0302C17.3832 9.01041 17.441 9.00001 17.5 9.00001C17.6326 9.00001 17.7597 9.05269 17.8535 9.14646C17.9473 9.24023 18 9.3674 18 9.50001V14C18 15.3261 17.4732 16.5979 16.5355 17.5355C15.5978 18.4732 14.326 19 13 19H11.2078H11.2061C10.3786 18.9999 9.56412 18.7944 8.83561 18.4019C8.1071 18.0095 7.48739 17.4423 7.03205 16.7514L7.03113 16.75L6.83771 16.454C6.70438 16.2494 6.40448 15.742 5.93493 14.9256L1.84243 11.7623L3.93018 11.394C3.81848 11.1957 3.70361 10.9917 3.58555 10.7818C3.5217 10.6683 3.50459 10.5343 3.53796 10.4084C3.57129 10.2827 3.65229 10.1749 3.76376 10.1079C3.92979 10.0087 4.12415 9.96762 4.31613 9.9912C4.50807 10.0148 4.68668 10.1016 4.82376 10.238L5.67239 11.0867L7.94927 10.685C7.90183 10.5416 7.8211 10.4069 7.70707 10.2929L6.23707 8.8229L6.23578 8.82162C5.78343 8.37092 5.1937 8.08394 4.55991 8.00611C3.92613 7.92828 3.28448 8.06403 2.73653 8.39188C2.17811 8.72668 1.77156 9.26658 1.60473 9.89593C1.43791 10.5253 1.52322 11.1949 1.84243 11.7623C3.71007 15.0828 4.82724 17.0322 5.16221 17.5461L5.3588 17.847L5.3608 17.85C5.9984 18.8182 6.86647 19.6129 7.88708 20.1627C8.80921 20.6594 9.82977 20.9422 10.8732 20.9921C10.9147 20.9973 10.957 21 11 21H11.2081H13C14.8565 21 16.637 20.2625 17.9497 18.9498C19.2625 17.637 20 15.8565 20 14V9.50001C20 8.83697 19.7366 8.20108 19.2677 7.73224C18.7989 7.2634 18.163 7.00001 17.5 7.00001C16.8369 7.00001 16.201 7.2634 15.7322 7.73224C15.2773 8.18714 15.0158 8.7993 15.0007 9.44094L17.3289 9.0302Z" fill="#1E1E1E"/>
<path d="M1.84243 11.7623L5.93493 14.9256C5.60785 14.357 5.19847 13.6384 4.70574 12.7678C4.46685 12.3457 4.20837 11.8878 3.93018 11.394L1.84243 11.7623Z" fill="#1E1E1E"/>
<path d="M6.29286 11.7071C6.68338 12.0976 7.31654 12.0976 7.70707 11.7071C7.98357 11.4306 8.0643 11.0325 7.94927 10.685L5.67239 11.0867L6.29286 11.7071Z" fill="#1E1E1E"/>
</g>
</g>
</svg>
