<svg width="20" height="20" viewBox="0 0 20 20" fill="none" xmlns="http://www.w3.org/2000/svg">
<g id="Group">
<path id="Vector (Stroke)" fill-rule="evenodd" clip-rule="evenodd" d="M9.29292 0.292893C9.68345 -0.0976311 10.3166 -0.0976311 10.7071 0.292893L19.7071 9.29289C19.9931 9.57889 20.0787 10.009 19.9239 10.3827C19.7691 10.7564 19.4045 11 19 11H18V17C18 17.7957 17.684 18.5587 17.1213 19.1213C16.5587 19.6839 15.7957 20 15 20H5.00003C4.20438 20 3.44132 19.6839 2.87871 19.1213C2.3161 18.5587 2.00003 17.7957 2.00003 17V11H1.00003C0.595567 11 0.230931 10.7564 0.0761497 10.3827C-0.0786313 10.009 0.00692445 9.57889 0.292922 9.29289L9.29292 0.292893ZM3.35094 9.0633C3.73013 9.20542 4.00003 9.57119 4.00003 10V17C4.00003 17.2652 4.10539 17.5196 4.29292 17.7071C4.48046 17.8946 4.73481 18 5.00003 18H15C15.2652 18 15.5196 17.8946 15.7071 17.7071C15.8947 17.5196 16 17.2652 16 17V10C16 9.57119 16.2699 9.20542 16.6491 9.0633L10 2.41421L3.35094 9.0633Z" fill="#1E1E1E"/>
<path id="Vector (Stroke)_2" fill-rule="evenodd" clip-rule="evenodd" d="M9 12C8.73478 12 8.48043 12.1054 8.29289 12.2929C8.10536 12.4804 8 12.7348 8 13V19C8 19.5523 7.55228 20 7 20C6.44772 20 6 19.5523 6 19V13C6 12.2043 6.31607 11.4413 6.87868 10.8787C7.44129 10.3161 8.20435 10 9 10H11C11.7957 10 12.5587 10.3161 13.1213 10.8787C13.6839 11.4413 14 12.2043 14 13V19C14 19.5523 13.5523 20 13 20C12.4477 20 12 19.5523 12 19V13C12 12.7348 11.8946 12.4804 11.7071 12.2929C11.5196 12.1054 11.2652 12 11 12H9Z" fill="#1E1E1E"/>
</g>
</svg>
