<svg width="14" height="20" viewBox="0 0 14 20" fill="none" xmlns="http://www.w3.org/2000/svg">
<g id="Group">
<path id="Vector (Stroke)" fill-rule="evenodd" clip-rule="evenodd" d="M0.5 5C0.5 4.44772 0.947715 4 1.5 4H12.5C13.0523 4 13.5 4.44772 13.5 5C13.5 5.55228 13.0523 6 12.5 6H1.5C0.947715 6 0.5 5.55228 0.5 5ZM7 11C5.67392 11 4.40215 11.5268 3.46447 12.4645C3.01823 12.9107 2.66505 13.4326 2.41742 14H11.5826C11.3349 13.4326 10.9818 12.9107 10.5355 12.4645C9.59785 11.5268 8.32608 11 7 11ZM12 16H2V18H12V16ZM2.05025 11.0503C3.36301 9.7375 5.14348 9 7 9C8.85652 9 10.637 9.7375 11.9497 11.0503C13.2625 12.363 14 14.1435 14 16V18C14 18.5304 13.7893 19.0391 13.4142 19.4142C13.0391 19.7893 12.5304 20 12 20H2C1.46957 20 0.960861 19.7893 0.585787 19.4142C0.210714 19.0391 0 18.5304 0 18V16C0 14.1435 0.737498 12.363 2.05025 11.0503Z" fill="#1E1E1E"/>
<path id="Vector (Stroke)_2" fill-rule="evenodd" clip-rule="evenodd" d="M0.585787 0.585786C0.960859 0.210714 1.46957 0 2 0H12C12.5304 0 13.0391 0.210713 13.4142 0.585786C13.7893 0.960861 14 1.46957 14 2V4C14 5.85651 13.2625 7.63699 11.9497 8.94975C10.637 10.2625 8.85652 11 7 11C5.14348 11 3.36301 10.2625 2.05025 8.94975C0.737498 7.63699 0 5.85652 0 4V2C0 1.46957 0.210714 0.960859 0.585787 0.585786ZM12 2H2L2 4C2 5.32608 2.52678 6.59785 3.46447 7.53553C4.40215 8.47322 5.67392 9 7 9C8.32608 9 9.59785 8.47322 10.5355 7.53553C11.4732 6.59785 12 5.32608 12 4V2Z" fill="#1E1E1E"/>
</g>
</svg>
