<svg width="20" height="20" viewBox="0 0 20 20" fill="none" xmlns="http://www.w3.org/2000/svg">
<g id="Group">
<path id="Vector (Stroke)" fill-rule="evenodd" clip-rule="evenodd" d="M4 2C3.46957 2 2.96086 2.21071 2.58579 2.58579C2.21071 2.96086 2 3.46957 2 4V16C2 16.5304 2.21071 17.0391 2.58579 17.4142C2.96086 17.7893 3.46957 18 4 18H16C16.5304 18 17.0391 17.7893 17.4142 17.4142C17.7893 17.0391 18 16.5304 18 16V4C18 3.46957 17.7893 2.96086 17.4142 2.58579C17.0391 2.21071 16.5304 2 16 2H4ZM1.17157 1.17157C1.92172 0.421427 2.93913 0 4 0H16C17.0609 0 18.0783 0.421427 18.8284 1.17157C19.5786 1.92172 20 2.93913 20 4V16C20 17.0609 19.5786 18.0783 18.8284 18.8284C18.0783 19.5786 17.0609 20 16 20H4C2.93913 20 1.92172 19.5786 1.17157 18.8284C0.421427 18.0783 0 17.0609 0 16V4C0 2.93913 0.421427 1.92172 1.17157 1.17157ZM12 6C12 5.44772 12.4477 5 13 5H13.01C13.5623 5 14.01 5.44772 14.01 6C14.01 6.55228 13.5623 7 13.01 7H13C12.4477 7 12 6.55228 12 6Z" fill="#1E1E1E"/>
<path id="Vector (Stroke)_2" fill-rule="evenodd" clip-rule="evenodd" d="M6.69967 9.71454L1.70711 14.7071C1.31658 15.0976 0.683418 15.0976 0.292893 14.7071C-0.0976311 14.3166 -0.0976311 13.6834 0.292893 13.2929L5.29289 8.29289L5.30661 8.27943C5.92076 7.68845 6.67726 7.33025 7.5 7.33025C8.32274 7.33025 9.07924 7.68845 9.69339 8.27943L9.70711 8.29289L14.7071 13.2929C15.0976 13.6834 15.0976 14.3166 14.7071 14.7071C14.3166 15.0976 13.6834 15.0976 13.2929 14.7071L8.30033 9.71454C7.98903 9.41737 7.71184 9.33025 7.5 9.33025C7.28816 9.33025 7.01097 9.41737 6.69967 9.71454Z" fill="#1E1E1E"/>
<path id="Vector (Stroke)_3" fill-rule="evenodd" clip-rule="evenodd" d="M13.6997 11.7145L12.7071 12.7071C12.3166 13.0976 11.6834 13.0976 11.2929 12.7071C10.9024 12.3166 10.9024 11.6834 11.2929 11.2929L12.2929 10.2929L12.3066 10.2794C12.9208 9.68845 13.6773 9.33025 14.5 9.33025C15.3227 9.33025 16.0792 9.68845 16.6934 10.2794L16.7071 10.2929L19.7071 13.2929C20.0976 13.6834 20.0976 14.3166 19.7071 14.7071C19.3166 15.0976 18.6834 15.0976 18.2929 14.7071L15.3003 11.7145C14.989 11.4174 14.7118 11.3302 14.5 11.3302C14.2882 11.3302 14.011 11.4174 13.6997 11.7145Z" fill="#1E1E1E"/>
</g>
</svg>
