<svg width="210" height="72" viewBox="0 0 210 72" fill="none" xmlns="http://www.w3.org/2000/svg">
<g id="Logo">
<g id="Logo container">
<g id="Logo text">
<path id="Vector" fill-rule="evenodd" clip-rule="evenodd" d="M88.9418 9.9654C86.0623 9.03607 82.849 8.57141 79.3019 8.57141C75.7547 8.57141 72.5206 9.03607 69.5994 9.9654C66.7199 10.8947 64.2578 12.2254 62.213 13.9573C60.1682 15.647 58.5824 17.6957 57.4556 20.1035C56.3706 22.5113 55.8281 25.2148 55.8281 28.214V44.1182C55.8281 47.1173 56.3706 49.8208 57.4556 52.2286C58.5824 54.6364 60.1682 56.6852 62.213 58.3749C64.2578 60.1068 66.7199 61.4374 69.5994 62.3668C72.5206 63.2961 75.7547 63.7607 79.3019 63.7607C82.849 63.7607 86.0623 63.2961 88.9418 62.3668C91.863 61.4374 94.346 60.1068 96.3908 58.3749C98.4356 56.6852 100.001 54.6364 101.086 52.2286C102.212 49.8208 102.776 47.1173 102.776 44.1182V28.214C102.776 25.2148 102.212 22.5113 101.086 20.1035C100.001 17.6957 98.4356 15.647 96.3908 13.9573C94.346 12.2254 91.863 10.8947 88.9418 9.9654ZM71.5477 21.0698C73.5925 19.3379 76.2425 18.4719 79.4975 18.4719C82.7525 18.4719 85.4025 19.3379 87.4473 21.0698C89.4504 22.8017 90.4519 25.3151 90.4519 28.61V43.2469C90.4519 46.5418 89.4504 49.0552 87.4473 50.7871C85.4025 52.5191 82.7525 53.385 79.4975 53.385C76.2425 53.385 73.5925 52.5191 71.5477 50.7871C69.5446 49.0552 68.5431 46.5418 68.5431 43.2469V28.61C68.5431 25.3151 69.5446 22.8017 71.5477 21.0698Z" fill="#2F52FE"/>
<path id="Vector_2" d="M51.649 45.3854C51.649 48.2156 51.0856 50.7713 49.9589 53.0524C48.8739 55.3334 47.309 57.2555 45.2641 58.8184C43.2193 60.4236 40.7363 61.6486 37.8151 62.4935C34.9357 63.3383 31.7224 63.7607 28.1753 63.7607C24.795 63.7607 21.6652 63.2961 18.7857 62.3668C15.9063 61.4374 13.4233 60.1068 11.3367 58.3749C9.25019 56.6852 7.62267 54.6364 6.4542 52.2286C5.28573 49.8208 4.70149 47.1173 4.70149 44.1182V28.214C4.70149 25.2148 5.28573 22.5113 6.4542 20.1035C7.62267 17.6957 9.25019 15.647 11.3367 13.9573C13.4233 12.2254 15.9063 10.8947 18.7857 9.9654C21.6652 9.03607 24.795 8.57141 28.1753 8.57141C31.5555 8.57141 34.6227 8.99383 37.377 9.83867C40.173 10.6413 42.5516 11.8241 44.513 13.387C46.5161 14.9077 48.0393 16.7664 49.0825 18.963C50.1676 21.1596 50.7101 23.6096 50.7101 26.3131V28.8476H38.1907V26.9467C38.1907 24.2855 37.3352 22.2579 35.6243 20.8639C33.9133 19.4276 31.4303 18.7095 28.1753 18.7095C24.9202 18.7095 22.2703 19.5755 20.2255 21.3074C18.2224 23.0393 17.2208 25.5527 17.2208 28.8476V43.4845C17.2208 46.7794 18.2224 49.2928 20.2255 51.0247C22.2703 52.7567 24.9202 53.6226 28.1753 53.6226C31.7224 53.6226 34.5184 52.8834 36.5632 51.4049C38.608 49.9264 39.6304 47.7087 39.6304 44.7518V43.6113H27.4241V34.1068H51.649V45.3854Z" fill="#2F52FE"/>
</g>
<g id="Logo text_2">
<path id="Vector_3" fill-rule="evenodd" clip-rule="evenodd" d="M191.195 9.86457C188.316 8.93524 185.102 8.47058 181.555 8.47058C178.008 8.47058 174.774 8.93524 171.853 9.86457C168.973 10.7939 166.511 12.1245 164.466 13.8565C162.421 15.5461 160.836 17.5949 159.709 20.0027C158.624 22.4105 158.081 25.114 158.081 28.1132V44.0173C158.081 47.0165 158.624 49.72 159.709 52.1278C160.836 54.5356 162.421 56.5844 164.466 58.274C166.511 60.006 168.973 61.3366 171.853 62.2659C174.774 63.1953 178.008 63.6599 181.555 63.6599C185.102 63.6599 188.316 63.1953 191.195 62.2659C194.116 61.3366 196.599 60.006 198.644 58.274C200.689 56.5844 202.254 54.5356 203.339 52.1278C204.466 49.72 205.029 47.0165 205.029 44.0173V28.1132C205.029 25.114 204.466 22.4105 203.339 20.0027C202.254 17.5949 200.689 15.5461 198.644 13.8565C196.599 12.1245 194.116 10.7939 191.195 9.86457ZM173.801 20.969C175.846 19.237 178.496 18.3711 181.751 18.3711C185.006 18.3711 187.656 19.237 189.701 20.969C191.704 22.7009 192.705 25.2143 192.705 28.5092V43.1461C192.705 46.441 191.704 48.9544 189.701 50.6863C187.656 52.4182 185.006 53.2842 181.751 53.2842C178.496 53.2842 175.846 52.4182 173.801 50.6863C171.798 48.9544 170.796 46.441 170.796 43.1461V28.5092C170.796 25.2143 171.798 22.7009 173.801 20.969Z" fill="#2F52FE"/>
<path id="Vector_4" d="M153.902 45.3854C153.902 48.2156 153.339 50.7713 152.212 53.0524C151.127 55.3334 149.562 57.2555 147.517 58.8184C145.473 60.4236 142.99 61.6486 140.068 62.4935C137.189 63.3383 133.976 63.7607 130.429 63.7607C127.048 63.7607 123.918 63.2961 121.039 62.3668C118.16 61.4374 115.677 60.1068 113.59 58.3749C111.503 56.6852 109.876 54.6364 108.707 52.2286C107.539 49.8208 106.955 47.1174 106.955 44.1182V28.214C106.955 25.2148 107.539 22.5113 108.707 20.1035C109.876 17.6957 111.503 15.647 113.59 13.9573C115.677 12.2254 118.16 10.8947 121.039 9.9654C123.918 9.03607 127.048 8.57141 130.429 8.57141C133.809 8.57141 136.876 8.99383 139.63 9.83867C142.426 10.6413 144.805 11.8241 146.766 13.387C148.769 14.9077 150.293 16.7664 151.336 18.963C152.421 21.1596 152.963 23.6096 152.963 26.3131V28.8476H140.444V26.9467C140.444 24.2855 139.588 22.2579 137.878 20.8639C136.167 19.4276 133.684 18.7095 130.429 18.7095C127.173 18.7095 124.524 19.5755 122.479 21.3074C120.476 23.0393 119.474 25.5527 119.474 28.8476V43.4845C119.474 46.7794 120.476 49.2928 122.479 51.0247C124.524 52.7567 127.173 53.6226 130.429 53.6226C133.976 53.6226 136.772 52.8834 138.816 51.4049C140.861 49.9265 141.884 47.7087 141.884 44.7518V43.6113H129.677V34.1068H153.902V45.3854Z" fill="#2F52FE"/>
</g>
</g>
</g>
</svg>
