<svg width="24" height="24" viewBox="0 0 24 24" fill="none" xmlns="http://www.w3.org/2000/svg">
<g id="Property 1=medal-2">
<path id="Vector (Stroke)" fill-rule="evenodd" clip-rule="evenodd" d="M12.023 2C12.0076 1.99964 11.9922 1.99963 11.9767 2H9C8.59997 2 8.23843 2.23839 8.08085 2.60608L5.08085 9.60608C4.97069 9.86312 4.9732 10.1545 5.08776 10.4097C5.20232 10.6648 5.41847 10.8602 5.68377 10.9487L10.5899 12.5841L9.83331 14.0973L7.3356 14.5136C6.96611 14.5752 6.66202 14.8381 6.5477 15.1948C6.43339 15.5515 6.52802 15.9422 6.79289 16.2071L8.43934 17.8535L8.01005 20.8586C7.95745 21.2268 8.11355 21.5938 8.41529 21.8112C8.71703 22.0287 9.11454 22.0608 9.44721 21.8944L12 20.618L14.5528 21.8944C14.8855 22.0608 15.283 22.0287 15.5847 21.8112C15.8864 21.5938 16.0426 21.2268 15.9899 20.8586L15.5607 17.8535L17.2071 16.2071C17.472 15.9422 17.5666 15.5515 17.4523 15.1948C17.338 14.8381 17.0339 14.5752 16.6644 14.5136L14.1667 14.0973L13.4101 12.5841L15.3108 11.9505C15.314 11.9494 15.3172 11.9484 15.3204 11.9473L18.3162 10.9487C18.5815 10.8602 18.7977 10.6648 18.9122 10.4097C19.0268 10.1545 19.0293 9.86312 18.9191 9.60608L15.9191 2.60608C15.7616 2.23839 15.4 2 15 2H12.023ZM15.598 9.74658L13.443 4H14.3406L16.6527 9.39499L15.598 9.74658ZM13.6993 10.3795L11.307 4H10.3874L12.6325 10.7351L13.6993 10.3795ZM10.4189 10.4189L7.34726 9.39499L8.88306 5.81145L10.4189 10.4189ZM12 14.2361L12.6056 15.4472C12.7487 15.7334 13.02 15.9338 13.3356 15.9864L14.4189 16.1669L13.7929 16.7929C13.5703 17.0155 13.4655 17.3298 13.5101 17.6414L13.7401 19.252L12.4472 18.6056C12.1657 18.4648 11.8343 18.4648 11.5528 18.6056L10.2599 19.252L10.4899 17.6414C10.5345 17.3298 10.4297 17.0155 10.2071 16.7929L9.58115 16.1669L10.6644 15.9864C10.98 15.9338 11.2513 15.7334 11.3944 15.4472L12 14.2361Z" fill="#1E1E1E"/>
</g>
</svg>
