<svg width="24" height="24" viewBox="0 0 24 24" fill="none" xmlns="http://www.w3.org/2000/svg">
<g id="Property 1=message">
<path id="Vector (Stroke)" fill-rule="evenodd" clip-rule="evenodd" d="M6 5C5.46957 5 4.96086 5.21071 4.58579 5.58579C4.21071 5.96086 4 6.46957 4 7V15C4 15.5304 4.21071 16.0391 4.58579 16.4142C4.96086 16.7893 5.46957 17 6 17H8C8.55228 17 9 17.4477 9 18V19.2338L12.4855 17.1425C12.6409 17.0493 12.8188 17 13 17H18C18.5304 17 19.0391 16.7893 19.4142 16.4142C19.7893 16.0391 20 15.5304 20 15V7C20 6.46957 19.7893 5.96086 19.4142 5.58579C19.0391 5.21071 18.5304 5 18 5H6ZM3.17157 4.17157C3.92172 3.42143 4.93913 3 6 3H18C19.0609 3 20.0783 3.42143 20.8284 4.17157C21.5786 4.92172 22 5.93913 22 7V15C22 16.0609 21.5786 17.0783 20.8284 17.8284C20.0783 18.5786 19.0609 19 18 19H13.277L8.5145 21.8575C8.20556 22.0429 7.82081 22.0477 7.5073 21.8702C7.19379 21.6927 7 21.3603 7 21V19H6C4.93913 19 3.92172 18.5786 3.17157 17.8284C2.42143 17.0783 2 16.0609 2 15V7C2 5.93913 2.42143 4.92172 3.17157 4.17157ZM7 9C7 8.44772 7.44772 8 8 8H16C16.5523 8 17 8.44772 17 9C17 9.55228 16.5523 10 16 10H8C7.44772 10 7 9.55228 7 9ZM7 13C7 12.4477 7.44772 12 8 12H14C14.5523 12 15 12.4477 15 13C15 13.5523 14.5523 14 14 14H8C7.44772 14 7 13.5523 7 13Z" fill="#1E1E1E"/>
</g>
</svg>
