<svg width="23" height="17" viewBox="0 0 23 17" fill="none" xmlns="http://www.w3.org/2000/svg">
<g id="Group">
<path id="Vector (Stroke)" fill-rule="evenodd" clip-rule="evenodd" d="M7.59975 2C6.67495 1.99978 5.77864 2.32002 5.06335 2.90622C4.3481 3.49239 3.85805 4.30828 3.67658 5.21505C3.67657 5.2151 3.67659 5.215 3.67658 5.21505L2.04258 13.388C1.98731 13.6644 2.02335 13.9514 2.1453 14.2055C2.26726 14.4596 2.46851 14.6672 2.71872 14.797C2.96893 14.9268 3.25455 14.9718 3.53253 14.9251C3.81051 14.8785 4.0658 14.7427 4.25992 14.5383L8.27493 10.3113C8.46373 10.1125 8.72585 10 8.99999 10H14.5C15.5609 10 16.5783 9.57857 17.3284 8.82843C18.0786 8.07828 18.5 7.06087 18.5 6C18.5 4.93913 18.0786 3.92172 17.3284 3.17157C16.5783 2.42143 15.5609 2 14.5 2H7.59975ZM7.59999 1.16292e-07C6.21286 -0.000272873 4.86849 0.480083 3.79562 1.35934C2.72269 2.23864 1.98759 3.46255 1.71542 4.8228L0.0814056 12.9959C0.0814016 12.9959 0.0814096 12.9959 0.0814056 12.9959C-0.058896 13.6975 0.032622 14.4258 0.342192 15.0708C0.651771 15.7159 1.16263 16.2429 1.79778 16.5724C2.43293 16.9018 3.15796 17.016 3.86361 16.8975C4.56926 16.7791 5.21728 16.4345 5.71004 15.9157C5.71004 15.9157 5.71005 15.9157 5.71004 15.9157L9.42935 12H14.5C16.0913 12 17.6174 11.3679 18.7426 10.2426C19.8678 9.11742 20.5 7.5913 20.5 6C20.5 4.4087 19.8678 2.88258 18.7426 1.75736C17.6174 0.632141 16.0913 1.16292e-07 14.5 1.16292e-07H7.59999C7.60007 1.16292e-07 7.59991 1.16292e-07 7.59999 1.16292e-07Z" fill="#1E1E1E"/>
<path id="Vector (Stroke)_2" fill-rule="evenodd" clip-rule="evenodd" d="M7 4C7.55228 4 8 4.44772 8 5C8.55228 5 9 5.44772 9 6C9 6.55228 8.55228 7 8 7C8 7.55228 7.55228 8 7 8C6.44772 8 6 7.55228 6 7C5.44772 7 5 6.55228 5 6C5 5.44772 5.44772 5 6 5C6 4.44772 6.44772 4 7 4ZM19.2042 4.04737C19.7463 3.942 20.2713 4.29607 20.3766 4.83821L21.9766 13.0702L21.9767 13.0703C22.1128 13.7711 22.018 14.4971 21.7065 15.1395C21.395 15.7818 20.8836 16.3058 20.2491 16.6329C19.6145 16.9599 18.891 17.0724 18.1871 16.9534C17.4832 16.8344 16.8369 16.4904 16.3451 15.9729L16.345 15.9728L12.275 11.6888C11.8946 11.2884 11.9108 10.6554 12.3112 10.275C12.7116 9.89462 13.3446 9.91084 13.725 10.3112L17.7949 14.5951C17.7949 14.5952 17.7949 14.5952 17.795 14.5952C17.9887 14.799 18.2433 14.9345 18.5205 14.9814C18.7978 15.0283 19.0828 14.9839 19.3328 14.8551C19.5828 14.7263 19.7842 14.5198 19.9069 14.2668C20.0296 14.0138 20.067 13.7278 20.0134 13.4518C20.0134 13.4518 20.0134 13.4517 20.0133 13.4517L18.4134 5.21979C18.308 4.67765 18.6621 4.15274 19.2042 4.04737ZM12 6C12 5.44772 12.4477 5 13 5H15C15.5523 5 16 5.44772 16 6C16 6.55228 15.5523 7 15 7H13C12.4477 7 12 6.55228 12 6Z" fill="#1E1E1E"/>
</g>
</svg>
