<svg width="24" height="24" viewBox="0 0 24 24" fill="none" xmlns="http://www.w3.org/2000/svg">
<g id="Property 1=Plinko">
<path id="Ellipse 1 (Stroke)" fill-rule="evenodd" clip-rule="evenodd" d="M9.5 13.5C8.94772 13.5 8.5 13.9477 8.5 14.5C8.5 15.0523 8.94772 15.5 9.5 15.5C10.0523 15.5 10.5 15.0523 10.5 14.5C10.5 13.9477 10.0523 13.5 9.5 13.5ZM8 14.5C8 13.6716 8.67157 13 9.5 13C10.3284 13 11 13.6716 11 14.5C11 15.3284 10.3284 16 9.5 16C8.67157 16 8 15.3284 8 14.5Z" fill="#1E1E1E"/>
<path id="Ellipse 9" d="M10 5C10 5.55228 9.55228 6 9 6C8.44772 6 8 5.55228 8 5C8 4.44772 8.44772 4 9 4C9.55228 4 10 4.44772 10 5Z" fill="#1E1E1E"/>
<path id="Ellipse 13" d="M16 5C16 5.55228 15.5523 6 15 6C14.4477 6 14 5.55228 14 5C14 4.44772 14.4477 4 15 4C15.5523 4 16 4.44772 16 5Z" fill="#1E1E1E"/>
<path id="Ellipse 9_2" d="M7 11C7 11.5523 6.55228 12 6 12C5.44772 12 5 11.5523 5 11C5 10.4477 5.44772 10 6 10C6.55228 10 7 10.4477 7 11Z" fill="#1E1E1E"/>
<path id="Ellipse 13_2" d="M13 11C13 11.5523 12.5523 12 12 12C11.4477 12 11 11.5523 11 11C11 10.4477 11.4477 10 12 10C12.5523 10 13 10.4477 13 11Z" fill="#1E1E1E"/>
<path id="Ellipse 12" d="M19 11C19 11.5523 18.5523 12 18 12C17.4477 12 17 11.5523 17 11C17 10.4477 17.4477 10 18 10C18.5523 10 19 10.4477 19 11Z" fill="#1E1E1E"/>
<path id="Ellipse 9_3" d="M4 18C4 18.5523 3.55228 19 3 19C2.44772 19 2 18.5523 2 18C2 17.4477 2.44772 17 3 17C3.55228 17 4 17.4477 4 18Z" fill="#1E1E1E"/>
<path id="Ellipse 13_3" d="M10 18C10 18.5523 9.55228 19 9 19C8.44772 19 8 18.5523 8 18C8 17.4477 8.44772 17 9 17C9.55228 17 10 17.4477 10 18Z" fill="#1E1E1E"/>
<path id="Ellipse 14" d="M16 18C16 18.5523 15.5523 19 15 19C14.4477 19 14 18.5523 14 18C14 17.4477 14.4477 17 15 17C15.5523 17 16 17.4477 16 18Z" fill="#1E1E1E"/>
<path id="Ellipse 12_2" d="M21 18C21 18.5523 20.5523 19 20 19C19.4477 19 19 18.5523 19 18C19 17.4477 19.4477 17 20 17C20.5523 17 21 17.4477 21 18Z" fill="#1E1E1E"/>
</g>
</svg>
