<svg width="20" height="20" viewBox="0 0 20 20" fill="none" xmlns="http://www.w3.org/2000/svg">
<g id="Group">
<path id="Vector (Stroke)" fill-rule="evenodd" clip-rule="evenodd" d="M2.92893 2.92893C4.8043 1.05357 7.34784 0 10 0C12.6522 0 15.1957 1.05357 17.0711 2.92893C18.9464 4.8043 20 7.34784 20 10C20 11.3132 19.7413 12.6136 19.2388 13.8268C18.7362 15.0401 17.9997 16.1425 17.0711 17.0711C16.1425 17.9997 15.0401 18.7362 13.8268 19.2388C12.6136 19.7413 11.3132 20 10 20C8.68678 20 7.38642 19.7413 6.17317 19.2388C4.95991 18.7362 3.85752 17.9997 2.92893 17.0711C2.00035 16.1425 1.26375 15.0401 0.761205 13.8268C0.258658 12.6136 0 11.3132 0 10C5.96046e-08 7.34784 1.05357 4.8043 2.92893 2.92893ZM10 2C7.87827 2 5.84344 2.84285 4.34315 4.34315C2.84285 5.84344 2 7.87827 2 10C2 11.0506 2.20693 12.0909 2.60896 13.0615C3.011 14.0321 3.60028 14.914 4.34315 15.6569C5.08601 16.3997 5.96793 16.989 6.93853 17.391C7.90914 17.7931 8.94942 18 10 18C11.0506 18 12.0909 17.7931 13.0615 17.391C14.0321 16.989 14.914 16.3997 15.6569 15.6569C16.3997 14.914 16.989 14.0321 17.391 13.0615C17.7931 12.0909 18 11.0506 18 10C18 7.87827 17.1571 5.84344 15.6569 4.34315C14.1566 2.84285 12.1217 2 10 2ZM10 13C10.5523 13 11 13.4477 11 14V14.01C11 14.5623 10.5523 15.01 10 15.01C9.44771 15.01 9 14.5623 9 14.01V14C9 13.4477 9.44771 13 10 13Z" fill="#1E1E1E"/>
<path id="Vector (Stroke)_2" fill-rule="evenodd" clip-rule="evenodd" d="M9.42664 6.05816C10.0859 5.92625 10.7705 6.02118 11.369 6.3275C11.9696 6.63382 12.4496 7.13355 12.7314 7.7461C13.0134 8.35897 13.0806 9.04899 12.9221 9.70474C12.7636 10.3605 12.3887 10.9437 11.858 11.3602C11.3273 11.7766 10.6716 12.002 9.99702 12C9.44473 11.9983 8.99837 11.5493 9.00003 10.997C9.00169 10.4447 9.45074 9.99835 10.003 10C10.2279 10.0007 10.4464 9.92555 10.6234 9.78673C10.8003 9.64791 10.9252 9.45351 10.978 9.23493C11.0309 9.01634 11.0085 8.78634 10.9145 8.58204C10.8205 8.37775 10.6604 8.21111 10.46 8.10901L10.4581 8.10803L10.4581 8.10803C10.2612 8.00716 10.036 7.97589 9.81902 8.01929C9.60209 8.0627 9.40623 8.17823 9.26329 8.34709C8.90647 8.76863 8.27548 8.8211 7.85394 8.46428C7.4324 8.10746 7.37993 7.47647 7.73675 7.05493C8.17139 6.54145 8.76698 6.19015 9.42664 6.05816Z" fill="#1E1E1E"/>
</g>
</svg>
