<svg width="24" height="24" viewBox="0 0 24 24" fill="none" xmlns="http://www.w3.org/2000/svg">
<path fill-rule="evenodd" clip-rule="evenodd" d="M16.9412 5.27552V5.2C16.9412 4.92336 16.6842 4.37649 15.6111 3.83962C14.6084 3.33792 13.156 3 11.5 3C9.84401 3 8.39162 3.33792 7.38886 3.83962C6.31582 4.37649 6.05875 4.92336 6.05875 5.2V5.27552L3.95701 19.77C3.93946 19.891 4.0289 20 4.14577 20H18.8542C18.9711 20 19.0605 19.891 19.043 19.77L16.9412 5.27552ZM11.5 2C15.0323 2 17.8959 3.43269 17.8959 5.2L19.9868 19.6198C20.0921 20.346 19.5554 21 18.8542 21H4.14577C3.44457 21 2.90793 20.346 3.01323 19.6198L5.10415 5.2C5.10415 3.43269 7.96767 2 11.5 2Z" fill="#1E1E1E"/>
<path fill-rule="evenodd" clip-rule="evenodd" d="M13.7255 12.965C13.5615 12.9127 13.3784 12.8866 13.1764 12.8866C12.9743 12.8866 12.7901 12.9127 12.6237 12.965C12.4597 13.0173 12.3194 13.0922 12.2029 13.1897C12.0865 13.2848 11.9961 13.4001 11.9319 13.5356C11.8701 13.6711 11.8392 13.8232 11.8392 13.992V14.887C11.8392 15.0557 11.8701 15.2079 11.9319 15.3434C11.9961 15.4789 12.0865 15.5942 12.2029 15.6892C12.3194 15.7867 12.4597 15.8616 12.6237 15.9139C12.7901 15.9662 12.9743 15.9923 13.1764 15.9923C13.3784 15.9923 13.5615 15.9662 13.7255 15.9139C13.8919 15.8616 14.0333 15.7867 14.1498 15.6892C14.2663 15.5942 14.3554 15.4789 14.4172 15.3434C14.4814 15.2079 14.5135 15.0557 14.5135 14.887V13.992C14.5135 13.8232 14.4814 13.6711 14.4172 13.5356C14.3554 13.4001 14.2663 13.2848 14.1498 13.1897C14.0333 13.0922 13.8919 13.0173 13.7255 12.965ZM12.7347 13.5899C12.8512 13.4925 13.0021 13.4437 13.1875 13.4437C13.3729 13.4437 13.5239 13.4925 13.6404 13.5899C13.7545 13.6874 13.8115 13.8288 13.8115 14.0143V14.8379C13.8115 15.0234 13.7545 15.1648 13.6404 15.2623C13.5239 15.3597 13.3729 15.4084 13.1875 15.4084C13.0021 15.4084 12.8512 15.3597 12.7347 15.2623C12.6206 15.1648 12.5635 15.0234 12.5635 14.8379V14.0143C12.5635 13.8288 12.6206 13.6874 12.7347 13.5899Z" fill="#1E1E1E"/>
<path d="M11.3935 14.9583C11.3935 15.1175 11.3614 15.2614 11.2972 15.3897C11.2354 15.5181 11.1463 15.6263 11.0298 15.7142C10.9133 15.8045 10.7719 15.8735 10.6055 15.921C10.4415 15.9686 10.2584 15.9923 10.0564 15.9923C9.86383 15.9923 9.68555 15.9662 9.52152 15.9139C9.3575 15.8616 9.21606 15.7867 9.0972 15.6892C8.97835 15.5942 8.88564 15.4789 8.81908 15.3434C8.75252 15.2079 8.71924 15.0557 8.71924 14.887V13.992C8.71924 13.8232 8.75252 13.6711 8.81908 13.5356C8.88564 13.4001 8.97835 13.2848 9.0972 13.1897C9.21606 13.0922 9.3575 13.0173 9.52152 12.965C9.68555 12.9127 9.86383 12.8866 10.0564 12.8866C10.2489 12.8866 10.4236 12.9104 10.5805 12.9579C10.7398 13.0031 10.8753 13.0696 10.987 13.1576C11.1011 13.2432 11.1879 13.3478 11.2473 13.4714C11.3091 13.595 11.34 13.7329 11.34 13.885V14.0276H10.6269V13.9207C10.6269 13.7709 10.5782 13.6568 10.4807 13.5783C10.3832 13.4975 10.2418 13.4571 10.0564 13.4571C9.87096 13.4571 9.72002 13.5058 9.60354 13.6033C9.48943 13.7008 9.43238 13.8422 9.43238 14.0276V14.8513C9.43238 15.0367 9.48943 15.1782 9.60354 15.2756C9.72002 15.3731 9.87096 15.4218 10.0564 15.4218C10.2584 15.4218 10.4177 15.3802 10.5342 15.297C10.6507 15.2138 10.7089 15.089 10.7089 14.9226V14.8584H10.0136V14.3236H11.3935V14.9583Z" fill="#1E1E1E"/>
<path fill-rule="evenodd" clip-rule="evenodd" d="M13.7255 9.41359C13.5615 9.36129 13.3784 9.33514 13.1764 9.33514C12.9743 9.33514 12.7901 9.36129 12.6237 9.41359C12.4597 9.46589 12.3194 9.54077 12.2029 9.63823C12.0865 9.73332 11.9961 9.84861 11.9319 9.9841C11.8701 10.1196 11.8392 10.2717 11.8392 10.4405V11.3355C11.8392 11.5043 11.8701 11.6564 11.9319 11.7919C11.9961 11.9274 12.0865 12.0427 12.2029 12.1378C12.3194 12.2353 12.4597 12.3101 12.6237 12.3624C12.7901 12.4147 12.9743 12.4409 13.1764 12.4409C13.3784 12.4409 13.5615 12.4147 13.7255 12.3624C13.8919 12.3101 14.0333 12.2353 14.1498 12.1378C14.2663 12.0427 14.3554 11.9274 14.4172 11.7919C14.4814 11.6564 14.5135 11.5043 14.5135 11.3355V10.4405C14.5135 10.2717 14.4814 10.1196 14.4172 9.9841C14.3554 9.84861 14.2663 9.73332 14.1498 9.63823C14.0333 9.54077 13.8919 9.46589 13.7255 9.41359ZM12.7347 10.0385C12.8512 9.94102 13.0021 9.89229 13.1875 9.89229C13.3729 9.89229 13.5239 9.94102 13.6404 10.0385C13.7545 10.1359 13.8115 10.2774 13.8115 10.4628V11.2865C13.8115 11.4719 13.7545 11.6133 13.6404 11.7108C13.5239 11.8083 13.3729 11.857 13.1875 11.857C13.0021 11.857 12.8512 11.8083 12.7347 11.7108C12.6206 11.6133 12.5635 11.4719 12.5635 11.2865V10.4628C12.5635 10.2774 12.6206 10.1359 12.7347 10.0385Z" fill="#1E1E1E"/>
<path d="M11.3935 11.4068C11.3935 11.5661 11.3614 11.7099 11.2972 11.8383C11.2354 11.9666 11.1463 12.0748 11.0298 12.1628C10.9133 12.2531 10.7719 12.322 10.6055 12.3696C10.4415 12.4171 10.2584 12.4409 10.0564 12.4409C9.86383 12.4409 9.68555 12.4147 9.52152 12.3624C9.3575 12.3101 9.21606 12.2353 9.0972 12.1378C8.97835 12.0427 8.88564 11.9274 8.81908 11.7919C8.75252 11.6564 8.71924 11.5043 8.71924 11.3355V10.4405C8.71924 10.2717 8.75252 10.1196 8.81908 9.9841C8.88564 9.84861 8.97835 9.73332 9.0972 9.63823C9.21606 9.54077 9.3575 9.46589 9.52152 9.41359C9.68555 9.36129 9.86383 9.33514 10.0564 9.33514C10.2489 9.33514 10.4236 9.35892 10.5805 9.40646C10.7398 9.45162 10.8753 9.51818 10.987 9.60614C11.1011 9.69172 11.1879 9.79631 11.2473 9.91992C11.3091 10.0435 11.34 10.1814 11.34 10.3335V10.4762H10.6269V10.3692C10.6269 10.2194 10.5782 10.1053 10.4807 10.0269C10.3832 9.94607 10.2418 9.90566 10.0564 9.90566C9.87096 9.90566 9.72002 9.95439 9.60354 10.0519C9.48943 10.1493 9.43238 10.2908 9.43238 10.4762V11.2999C9.43238 11.4853 9.48943 11.6267 9.60354 11.7242C9.72002 11.8216 9.87096 11.8704 10.0564 11.8704C10.2584 11.8704 10.4177 11.8288 10.5342 11.7456C10.6507 11.6624 10.7089 11.5376 10.7089 11.3712V11.307H10.0136V10.7721H11.3935V11.4068Z" fill="#1E1E1E"/>
</svg>
