<svg width="20" height="18" viewBox="0 0 20 18" fill="none" xmlns="http://www.w3.org/2000/svg">
<g id="Group">
<g id="Vector (Stroke)">
<path fill-rule="evenodd" clip-rule="evenodd" d="M15 2.13505L14.3622 2.66655L10.6402 5.76823C10.4605 5.91799 10.2339 6.00001 10 6.00001H2V10H10C10.2339 10 10.4605 10.082 10.6402 10.2318L15 13.865V2.48653V2.13505ZM14.8574 0.0371013C15.2156 -0.0090189 15.5795 0.0479146 15.9065 0.201231C16.2336 0.354546 16.5101 0.597892 16.7038 0.902751C16.8973 1.20747 17.0001 1.56102 17 1.92201M14.8574 0.0371013C14.4992 0.0832216 14.1615 0.230485 13.884 0.461634L14.8574 0.0371013ZM13.884 0.461634L9.63795 4.00001L13.884 0.461634ZM9.63795 4.00001H2C1.46957 4.00001 0.960859 4.21072 0.585786 4.5858C0.210714 4.96087 0 5.46958 0 6.00001V10C0 10.5304 0.210714 11.0392 0.585786 11.4142C0.960859 11.7893 1.46957 12 2 12H9.63795L13.8838 15.5382C14.1613 15.7694 14.4992 15.9168 14.8574 15.9629C15.2156 16.009 15.5795 15.9521 15.9065 15.7988C16.2336 15.6455 16.5101 15.4021 16.7038 15.0973C16.8973 14.7926 17.0001 14.439 17 14.078V1.92201" fill="#1E1E1E"/>
<path d="M14.3622 2.66655L15 2.13505V2.48653L17 1.92201L14.8574 0.0371013L13.884 0.461634L9.63795 4.00001L14.3622 2.66655Z" fill="#1E1E1E"/>
</g>
<path id="Vector (Stroke)_2" fill-rule="evenodd" clip-rule="evenodd" d="M8 4C8.55228 4 9 4.44772 9 5V16C9 16.5304 8.78929 17.0391 8.41421 17.4142C8.03914 17.7893 7.53043 18 7 18H6C5.46957 18 4.96086 17.7893 4.58579 17.4142C4.21071 17.0391 4 16.5304 4 16V11C4 10.4477 4.44772 10 5 10C5.55228 10 6 10.4477 6 11V16H7V5C7 4.44772 7.44772 4 8 4ZM15 5C15 4.44772 15.4477 4 16 4C17.0609 4 18.0783 4.42143 18.8284 5.17157C19.5786 5.92172 20 6.93913 20 8C20 9.06087 19.5786 10.0783 18.8284 10.8284C18.0783 11.5786 17.0609 12 16 12C15.4477 12 15 11.5523 15 11C15 10.4477 15.4477 10 16 10C16.5304 10 17.0391 9.78929 17.4142 9.41421C17.7893 9.03914 18 8.53043 18 8C18 7.46957 17.7893 6.96086 17.4142 6.58579C17.0391 6.21071 16.5304 6 16 6C15.4477 6 15 5.55228 15 5Z" fill="#1E1E1E"/>
</g>
</svg>
