<svg width="20" height="20" viewBox="0 0 20 20" fill="none" xmlns="http://www.w3.org/2000/svg">
<g id="Group">
<path id="Vector (Stroke)" fill-rule="evenodd" clip-rule="evenodd" d="M6.17317 0.761205C7.38642 0.258658 8.68678 0 10 0C11.3132 0 12.6136 0.258658 13.8268 0.761205C15.0401 1.26375 16.1425 2.00035 17.0711 2.92893C17.9997 3.85752 18.7362 4.95991 19.2388 6.17317C19.7413 7.38642 20 8.68678 20 10C20 11.3132 19.7413 12.6136 19.2388 13.8268C18.7362 15.0401 17.9997 16.1425 17.0711 17.0711C16.1425 17.9997 15.0401 18.7362 13.8268 19.2388C12.6136 19.7413 11.3132 20 10 20C8.68678 20 7.38642 19.7413 6.17317 19.2388C4.95991 18.7362 3.85752 17.9997 2.92893 17.0711C2.00035 16.1425 1.26375 15.0401 0.761205 13.8268C0.258658 12.6136 0 11.3132 0 10C0 8.68678 0.258658 7.38642 0.761205 6.17317C1.26375 4.95991 2.00035 3.85752 2.92893 2.92893C3.85752 2.00035 4.95991 1.26375 6.17317 0.761205ZM10 2C8.94942 2 7.90914 2.20693 6.93853 2.60896C5.96793 3.011 5.08601 3.60028 4.34315 4.34315C3.60028 5.08601 3.011 5.96793 2.60896 6.93853C2.20693 7.90914 2 8.94942 2 10C2 11.0506 2.20693 12.0909 2.60896 13.0615C3.011 14.0321 3.60028 14.914 4.34315 15.6569C5.08601 16.3997 5.96793 16.989 6.93853 17.391C7.90914 17.7931 8.94942 18 10 18C11.0506 18 12.0909 17.7931 13.0615 17.391C14.0321 16.989 14.914 16.3997 15.6569 15.6569C16.3997 14.914 16.989 14.0321 17.391 13.0615C17.7931 12.0909 18 11.0506 18 10C18 8.94942 17.7931 7.90914 17.391 6.93853C16.989 5.96793 16.3997 5.08602 15.6569 4.34315C14.914 3.60028 14.0321 3.011 13.0615 2.60896C12.0909 2.20693 11.0506 2 10 2Z" fill="#1E1E1E"/>
<path id="Vector (Stroke)_2" fill-rule="evenodd" clip-rule="evenodd" d="M3.25556 2.63231C3.62432 2.22117 4.25655 2.1868 4.66769 2.55555C5.71339 3.49343 6.54977 4.64108 7.12235 5.92375C7.69492 7.20642 7.99085 8.59533 7.99085 10C7.99085 11.4047 7.69492 12.7936 7.12235 14.0762C6.54977 15.3589 5.71339 16.5066 4.66769 17.4444C4.25655 17.8132 3.62432 17.7788 3.25556 17.3677C2.88681 16.9565 2.92118 16.3243 3.33232 15.9556C4.16888 15.2053 4.83798 14.2871 5.29605 13.261C5.75411 12.2349 5.99085 11.1237 5.99085 10C5.99085 8.87626 5.75411 7.76514 5.29605 6.739C4.83799 5.71286 4.16888 4.79474 3.33232 4.04444C2.92118 3.67569 2.88681 3.04346 3.25556 2.63231ZM16.7445 2.63231C17.1132 3.04346 17.0788 3.67569 16.6677 4.04444C15.8311 4.79474 15.162 5.71286 14.704 6.739C14.2459 7.76514 14.0092 8.87626 14.0092 10C14.0092 11.1237 14.2459 12.2349 14.704 13.261C15.162 14.2871 15.8311 15.2053 16.6677 15.9556C17.0788 16.3243 17.1132 16.9565 16.7445 17.3677C16.3757 17.7788 15.7435 17.8132 15.3323 17.4444C14.2866 16.5066 13.4502 15.3589 12.8777 14.0762C12.3051 12.7936 12.0092 11.4047 12.0092 10C12.0092 8.59533 12.3051 7.20642 12.8777 5.92375C13.4502 4.64108 14.2866 3.49343 15.3323 2.55555C15.7435 2.1868 16.3757 2.22117 16.7445 2.63231Z" fill="#1E1E1E"/>
</g>
</svg>
