<svg width="20" height="20" viewBox="0 0 20 20" fill="none" xmlns="http://www.w3.org/2000/svg">
<g id="Group">
<path id="Vector (Stroke)" fill-rule="evenodd" clip-rule="evenodd" d="M6.17317 0.761205C7.38642 0.258658 8.68678 0 10 0C11.3132 0 12.6136 0.258658 13.8268 0.761205C15.0401 1.26375 16.1425 2.00035 17.0711 2.92893C17.9997 3.85752 18.7362 4.95991 19.2388 6.17317C19.7413 7.38642 20 8.68678 20 10C20 11.3132 19.7413 12.6136 19.2388 13.8268C18.7362 15.0401 17.9997 16.1425 17.0711 17.0711C16.1425 17.9997 15.0401 18.7362 13.8268 19.2388C12.6136 19.7413 11.3132 20 10 20C8.68678 20 7.38642 19.7413 6.17317 19.2388C4.95991 18.7362 3.85752 17.9997 2.92893 17.0711C2.00035 16.1425 1.26375 15.0401 0.761205 13.8268C0.258658 12.6136 0 11.3132 0 10C0 8.68678 0.258658 7.38642 0.761205 6.17317C1.26375 4.95991 2.00035 3.85752 2.92893 2.92893C3.85752 2.00035 4.95991 1.26375 6.17317 0.761205ZM10 2C8.94942 2 7.90914 2.20693 6.93853 2.60896C5.96793 3.011 5.08601 3.60028 4.34315 4.34315C3.60028 5.08601 3.011 5.96793 2.60896 6.93853C2.20693 7.90914 2 8.94942 2 10C2 11.0506 2.20693 12.0909 2.60896 13.0615C3.011 14.0321 3.60028 14.914 4.34315 15.6569C5.08601 16.3997 5.96793 16.989 6.93853 17.391C7.90914 17.7931 8.94942 18 10 18C11.0506 18 12.0909 17.7931 13.0615 17.391C14.0321 16.989 14.914 16.3997 15.6569 15.6569C16.3997 14.914 16.989 14.0321 17.391 13.0615C17.7931 12.0909 18 11.0506 18 10C18 8.94942 17.7931 7.90914 17.391 6.93853C16.989 5.96793 16.3997 5.08602 15.6569 4.34315C14.914 3.60028 14.0321 3.011 13.0615 2.60896C12.0909 2.20693 11.0506 2 10 2Z" fill="#1E1E1E"/>
<path id="Vector (Stroke)_2" fill-rule="evenodd" clip-rule="evenodd" d="M9.50836 9.12918C9.9893 8.85767 10.5993 9.02744 10.8708 9.50837C11.5563 10.7226 12.5888 11.7044 13.836 12.328C15.0831 12.9516 16.4881 13.1885 17.8708 13.0084C18.4184 12.937 18.9203 13.3231 18.9916 13.8708C19.063 14.4185 18.6768 14.9203 18.1292 14.9916C16.3514 15.2232 14.545 14.9186 12.9415 14.1169C11.338 13.3151 10.0105 12.0528 9.12917 10.4916C8.85766 10.0107 9.02743 9.4007 9.50836 9.12918ZM5.05978 10.6021C5.55568 10.359 6.15476 10.5639 6.39788 11.0598C7.14712 12.5881 8.24079 13.9216 9.59282 14.9555C10.9449 15.9894 12.5184 16.6955 14.1895 17.0181C14.7318 17.1228 15.0865 17.6473 14.9818 18.1896C14.8772 18.7318 14.3527 19.0866 13.8104 18.9819C11.8354 18.6005 9.97577 17.7661 8.37792 16.5442C6.78006 15.3223 5.48755 13.7463 4.60208 11.9402C4.35897 11.4443 4.56388 10.8452 5.05978 10.6021Z" fill="#1E1E1E"/>
<path id="Vector (Stroke)_3" fill-rule="evenodd" clip-rule="evenodd" d="M5.14321 5.32294C7.0005 4.55014 9.01179 4.2189 11.0188 4.3553C11.5698 4.39275 11.9861 4.86979 11.9487 5.4208C11.9113 5.97181 11.4342 6.38814 10.8832 6.3507C9.18495 6.23528 7.48309 6.51556 5.91154 7.16947C4.33999 7.82338 2.94164 8.83308 1.82653 10.1191C1.46472 10.5364 0.833151 10.5813 0.415884 10.2195C-0.00138295 9.85772 -0.0463396 9.22615 0.315471 8.80888C1.63333 7.28902 3.28593 6.09574 5.14321 5.32294ZM4.96401 10.489C6.46006 9.5012 8.21701 8.98275 10.0096 9.00004C10.5619 9.00537 11.0053 9.45739 11 10.0096C10.9946 10.5619 10.5426 11.0053 9.99035 10.9999C8.59608 10.9865 7.22956 11.3897 6.06596 12.158C4.90237 12.9262 3.99471 14.0245 3.45935 15.3119C3.2473 15.8219 2.662 16.0634 2.15205 15.8513C1.64209 15.6393 1.4006 15.054 1.61265 14.544C2.30097 12.8887 3.46795 11.4767 4.96401 10.489Z" fill="#1E1E1E"/>
<path id="Vector (Stroke)_4" fill-rule="evenodd" clip-rule="evenodd" d="M8.85629 0.277838C9.2949 -0.0577802 9.92254 0.0257116 10.2582 0.464322C11.3476 1.88805 11.987 3.60469 12.0944 5.39418C12.2018 7.18367 11.7724 8.96448 10.8612 10.5083C10.5804 10.9839 9.96728 11.1419 9.49167 10.8612C9.01606 10.5805 8.85807 9.96731 9.13881 9.4917C9.84756 8.29094 10.1816 6.90587 10.098 5.51404C10.0144 4.12221 9.51713 2.78705 8.66981 1.6797C8.33419 1.24109 8.41768 0.613456 8.85629 0.277838ZM14.6023 1.59088C15.1243 1.41046 15.6937 1.68734 15.8741 2.20933C16.5312 4.11045 16.7382 6.13812 16.4788 8.13281C16.2194 10.1275 15.5006 12.0348 14.3791 13.7046C14.0712 14.163 13.4499 14.2851 12.9914 13.9771C12.5329 13.6692 12.4109 13.0479 12.7188 12.5894C13.6678 11.1765 14.276 9.56269 14.4955 7.87488C14.715 6.18706 14.5399 4.47134 13.9838 2.8627C13.8034 2.34071 14.0803 1.7713 14.6023 1.59088Z" fill="#1E1E1E"/>
</g>
</svg>
